<?xml version="1.0" encoding="utf-8"?>
<!-- Generator: Adobe Illustrator 28.2.0, SVG Export Plug-In . SVG Version: 6.00 Build 0)  -->
<svg version="1.1" id="Layer_1" xmlns="http://www.w3.org/2000/svg" xmlns:xlink="http://www.w3.org/1999/xlink" x="0px" y="0px"
	 viewBox="0 0 160 175.8" style="enable-background:new 0 0 160 175.8;" xml:space="preserve">
<style type="text/css">
	.st0{font-family:'AppleChancery';}
	.st1{font-size:23px;}
	.st2{fill:none;stroke:#000000;stroke-width:0.5;stroke-miterlimit:10;}
</style>
<text transform="matrix(1 0 0 1 50.6295 75.2176)" class="st0 st1">Champ</text>
<text transform="matrix(1 0 0 1 70.6395 102.8176)" class="st0 st1">Dé</text>
<text transform="matrix(1 0 0 1 43.5895 130.4175)" class="st0 st1">Lavande</text>
<g>
	<path d="M72.6,33.9c0.5-0.2,0.9-0.4,1.3-0.7c0.1-0.1,0.2-0.2,0.3-0.3c0.1-0.1,0.2-0.2,0.3-0.2c0.5-0.1,0.9-0.3,1.3-0.5
		c0.1,0,0.2-0.1,0.2-0.1c0.1,0,0.1,0.1,0.2,0.2c0.2,0.3,0.4,0.6,0.7,0.8c0.4,0.3,0.8,0.6,1.2,0.7c0.2,0.1,0.4,0.1,0.6,0.1
		c0.2,0,0.3-0.1,0.2-0.4c0-0.1-0.1-0.2-0.1-0.3c0-0.1-0.1-0.1-0.1-0.2c0-0.1-0.1-0.1-0.2-0.2c0.1,0,0.1,0,0.2,0c0.1,0,0.1,0,0.2,0.1
		c0.4,0.1,0.8,0.2,1.1,0c0.2,0,0.3,0.1,0.5,0.1c0.4,0.1,0.7,0.1,1,0c0.4-0.1,0.5-0.2,0.3-0.8c0.1,0,0.2,0,0.3,0c0.1,0,0.2,0,0.2,0
		c0.1,0,0.3,0,0.4-0.2c0.1-0.1,0-0.3-0.1-0.5c0,0,0,0,0,0c0.4-0.1,0.7-0.2,1.1-0.4c0.2-0.1,0.4-0.2,0.6-0.3c0.1,0,0.1-0.1,0.2-0.1
		c0.2-0.2,0.3-0.5,0.1-0.9c0.1-0.1,0.2-0.3,0.4-0.4c0,0,0.1-0.1,0.2-0.1c0.1,0,0.2-0.1,0.3-0.1c0.2-0.1,0.3-0.4,0.2-0.7
		c-0.1-0.3-0.4-0.5-0.7-0.7c-0.3-0.2-0.6-0.2-0.9-0.1c-0.1,0.1-0.3,0.1-0.5,0c0,0-0.1-0.1-0.1-0.1c-0.2-0.4-0.5-0.5-0.9-0.5
		c-0.2,0-0.5,0-0.7,0.1c-0.2,0-0.4,0.1-0.5,0.2c0,0-0.1-0.1-0.1-0.1c-0.3-0.3-0.5-0.4-0.8-0.3c-0.3,0.1-0.6,0.2-0.8,0.4
		c-0.2,0.1-0.4,0.3-0.6,0.4c0-0.1-0.1-0.2-0.1-0.3c-0.1-0.3-0.4-0.4-0.6-0.3c-0.1,0.1-0.2,0.1-0.4,0.2c-0.1-0.1-0.1-0.2-0.1-0.2
		c0-0.2-0.1-0.4-0.2-0.6c-0.2-0.3-0.5-0.4-0.7-0.2c-0.1,0.1-0.2,0.2-0.3,0.4c-0.1,0.3-0.2,0.6-0.3,0.9c-0.1,0.4-0.2,0.7-0.2,1
		c0,0,0,0-0.1,0.1c-0.1-0.3-0.2-0.5-0.3-0.7c-0.1-0.2-0.1-0.3-0.3-0.5c-0.2-0.2-0.4-0.2-0.6-0.1c-0.1,0.1-0.1,0.1-0.1,0.2
		c-0.1,0.3-0.2,0.6-0.2,1c0,0.7,0,1.4,0.2,2.2c-0.3,0.1-0.6,0.3-0.9,0.4c-0.3,0.1-0.6,0.3-1,0.5c0.1-0.2,0.1-0.3,0.1-0.4
		c0.1-0.2,0.1-0.5,0.1-0.8c0-0.2-0.1-0.4-0.3-0.6c-0.2-0.1-0.4-0.1-0.6,0c-0.1,0.1-0.2,0.2-0.3,0.3c-0.1,0.1-0.2,0.2-0.3,0.4
		c0-0.1,0-0.2-0.1-0.3c0-0.4-0.2-0.8-0.4-1.2c-0.1-0.1-0.1-0.2-0.2-0.4c-0.2-0.3-0.5-0.4-0.8-0.2c-0.1,0-0.2,0.1-0.3,0.2
		c-0.1,0-0.1-0.1-0.2-0.2c-0.3-0.2-0.5-0.2-0.6,0c-0.1,0.1-0.1,0.2-0.2,0.4c-0.1,0.3-0.1,0.6-0.1,1c0,0.1,0,0.2,0,0.3
		c-0.4,0-0.6,0.2-0.7,0.5c-0.1,0.3-0.1,0.6-0.1,1c0,0.2,0,0.4,0,0.7c-0.3,0.2-0.5,0.5-0.5,0.9c-0.1,0-0.2,0-0.4,0c0-0.1,0-0.2,0-0.3
		c0-0.3,0-0.5,0-0.8c0-0.1-0.1-0.3-0.1-0.4c-0.1-0.3-0.3-0.4-0.6-0.4c-0.2,0-0.3,0.1-0.4,0.2c-0.2,0.2-0.3,0.4-0.5,0.5
		c0,0-0.1,0.1-0.1,0.1c-0.1,0-0.2-0.1-0.2-0.2c-0.2-0.2-0.4-0.2-0.5-0.1c-0.2,0.1-0.3,0.2-0.4,0.4c-0.3,0.4-0.5,0.9-0.7,1.5
		c0,0.1-0.1,0.3-0.1,0.4c0,0-0.1,0-0.1,0c-0.4-0.3-0.7-0.2-0.9-0.1c-0.1,0.1-0.3,0.2-0.4,0.3c-0.2-0.2-0.3-0.5-0.5-0.7
		c0.1-0.5,0.4-0.8,0.7-1.1c0.1-0.1,0.3-0.3,0.5-0.2c0,0.1,0.1,0.2,0.1,0.2c0,0.2,0.1,0.4,0.1,0.6c0,0.1,0,0.2,0,0.3
		c0,0,0.1,0.1,0.1,0.1c0.1,0,0.1,0,0.1-0.1c0-0.3,0-0.6,0-1c0-0.1,0-0.2-0.1-0.3c-0.1-0.3-0.4-0.4-0.6-0.4c-0.2,0-0.4,0.1-0.5,0.2
		c-0.3,0.3-0.5,0.6-0.7,1c0,0.1-0.1,0.2-0.1,0.3c-0.1,0-0.2,0-0.2-0.1c-0.3-0.1-0.5,0-0.6,0.2c-0.1,0.2-0.2,0.4-0.2,0.6
		c0,0.3,0,0.6,0.1,0.9c0,0.1,0.1,0.3,0.1,0.5c-0.1,0-0.2,0-0.3,0c-0.5,0-0.8,0.2-0.8,0.7c0,0.4,0.1,0.7,0.3,1.1s0.4,0.7,0.6,1
		c0,0.1,0.1,0.1,0.2,0.2c-0.1,0-0.1,0.1-0.2,0.1c-0.8,0.4-1.6,0.8-2.2,1.3c-0.3,0.2-0.6,0.5-1,0.6c-0.1-0.1,0-0.1,0-0.2
		c0-0.2,0-0.4,0-0.6c0-0.1,0-0.2,0-0.3c-0.1-0.3-0.4-0.5-0.6-0.4c-0.2,0-0.4,0.1-0.5,0.3c-0.2,0.3-0.4,0.6-0.6,0.9
		c0,0,0,0.1-0.1,0.2c-0.1,0-0.1-0.1-0.2-0.2c-0.1-0.1-0.3-0.2-0.4-0.2c-0.5,0-0.9,0.4-1,0.8c0,0.1,0,0.1,0,0.2c-0.1,0.4,0,0.5,0.2,1
		c-0.3,0.1-0.6,0.3-0.9,0.5c-0.9,0.6-2,0.9-3,1.4c-0.7,0.3-1.4,0.6-2.1,1c-0.2,0.1-0.5,0.2-0.8,0.3c-0.4,0.1-0.7,0.2-1,0.4
		c-0.1,0-0.2,0.1-0.4,0.1c0-0.2,0.2-0.2,0.2-0.3c0.4-0.3,0.8-0.5,1.1-0.8c0.3-0.3,0.7-0.5,1-0.9c0.8-0.8,1.5-1.5,2.2-2.4
		c0.5-0.6,0.9-1.2,1.2-1.9c0.1-0.1,0.1-0.2,0.2-0.2c0.2-0.1,0.4-0.3,0.6-0.5c0.9-0.8,1.6-1.7,2.2-2.8c0.1-0.1,0.1-0.2,0.1-0.4
		c0-0.1,0-0.2,0-0.3c0-0.2-0.1-0.3-0.3-0.4c-0.2-0.1-0.3-0.1-0.5-0.1c-0.3,0-0.5,0-0.8,0.1c-0.1,0-0.1,0-0.3,0.1c0-0.2,0-0.3,0-0.5
		c0.1-1.1,0.3-2.1,0.3-3.3c0-0.6,0-1.2,0-1.9c0-0.3,0-0.6-0.1-0.9c-0.2-0.5-0.5-0.7-0.9-0.5c-0.1,0.1-0.2,0.1-0.3,0.2
		c-0.2,0.2-0.4,0.4-0.6,0.6c-0.7,0.9-1.4,1.8-2,2.9c-0.5,0.9-1,1.7-1.4,2.5c-0.5,0.9-0.9,1.8-1.3,2.8c-0.1,0.2-0.2,0.3-0.3,0.3
		c-0.4,0.1-0.7,0.4-1,0.6c-0.4,0.3-0.8,0.6-1.2,0.9c-0.2,0.2-0.5,0.3-0.7,0.5c0-0.1,0-0.2,0-0.2c0.2-0.8,0.4-1.5,0.6-2.3
		c0.2-0.7,0.4-1.4,0.5-2c0.2-0.6,0.3-1.2,0.5-1.7c0.1,0,0.3,0.1,0.4,0.1c0.1,0,0.2-0.1,0.3-0.1c0,0,0.1,0,0.1-0.1
		c0.6-0.6,1.2-1.2,1.7-1.9c0.1-0.1,0.2-0.2,0.2-0.4c0.1-0.3-0.1-0.6-0.5-0.6c-0.5-0.1-0.8,0-1.1,0.3c-0.1,0.1-0.3,0.2-0.4,0.4
		c-0.1,0.1-0.2,0.2-0.3,0.3c0-0.1,0-0.1,0-0.1c0.1-0.8,0.2-1.6,0.6-2.3c0,0,0.1,0,0.1,0c0.7,0.1,1.3-0.1,1.8-0.4
		c0.2-0.1,0.3-0.3,0.4-0.5c0.1-0.4-0.1-0.7-0.6-0.8c-0.2,0-0.4,0-0.5,0c-0.1,0-0.2,0-0.3,0c0.1-0.2,0.2-0.4,0.3-0.6c0,0,0.1,0,0.1,0
		c0.3,0.3,0.7,0.4,1.1,0.4c0.3,0,0.6-0.1,0.9-0.3c0.4-0.2,0.7-0.4,0.9-0.9c0.4,0.1,0.7,0.1,1.1,0.2c0.1,0,0.2,0.1,0.3,0.2
		c0.2,0.1,0.4,0.1,0.6,0.1c0.3-0.1,0.4-0.3,0.2-0.7c0,0-0.1-0.1-0.1-0.1c0,0,0,0,0-0.1c0.2,0.1,0.4,0.1,0.6,0.2
		c0.3,0.1,0.6,0.2,0.9,0.1c0.2,0,0.4,0,0.5-0.1c0.3-0.1,0.4-0.5,0.1-0.9c-0.3-0.4-0.7-0.7-1.1-0.8c-0.2,0-0.3,0-0.5,0
		c-0.2-0.5-0.7-0.6-1.1-0.8c0.1-0.1,0.1-0.1,0.3-0.1c0.2,0.1,0.3,0.1,0.5,0.1c0.1-0.1,0.3-0.1,0.4-0.2c0.3-0.2,0.3-0.4,0.3-0.8
		c0.2,0,0.4,0.2,0.6,0.4s0.3,0.3,0.4,0.6c-0.3,0.3-0.9,0.2-1.4,0.3c0,0.1,0.1,0.1,0.1,0.1c0.4,0.1,0.9,0.2,1.2,0.1
		c0.1,0,0.2-0.1,0.3-0.1c0.2-0.1,0.3-0.3,0.1-0.6c-0.2-0.4-0.5-0.7-0.9-0.9c-0.1-0.1-0.3-0.1-0.5-0.2c0.3-0.4,0.6-0.7,0.5-1.3
		c0.4-0.1,0.8-0.3,0.7-0.8c0.1,0.1,0.3,0.1,0.4,0.2c0.2,0.1,0.5,0.2,0.7,0.3c0.3,0.1,0.6,0.1,0.8,0c0.3-0.1,0.4-0.5,0.2-0.9
		c0-0.1-0.1-0.1-0.1-0.2c0.1,0,0.2-0.1,0.2-0.1c0.2-0.1,0.3-0.2,0.4-0.4c0.1-0.3-0.1-0.8-0.5-0.8c-0.4-0.1-0.8,0-1.1,0.3
		c0.1,0,0.2,0.1,0.2,0.1c0.1,0,0.3,0,0.5,0c0.1,0,0.2,0,0.4,0c0.1,0,0.3,0.2,0.2,0.3c-0.1,0.1-0.1,0.2-0.2,0.2
		c-0.1,0.1-0.2,0.1-0.3,0.1c-0.5-0.3-1-0.6-1.5-1c0.1,0,0.2,0,0.3,0c0.5,0,1-0.2,1.5-0.4c0.2,0,0.3-0.1,0.4-0.2
		c0.2-0.1,0.2-0.2,0-0.5c0,0,0,0-0.1-0.1c0.1-0.1,0.3-0.1,0.3-0.2c0.1-0.1,0.1-0.2,0.1-0.4c0.4-0.2,0.7-0.5,0.6-1
		c-0.1-0.4-0.4-0.8-1-1.2c0-0.1,0.1-0.1,0.2-0.1c0.3-0.1,0.6-0.2,0.8-0.4c0.1-0.1,0.2-0.2,0.3-0.4c0.1-0.2,0-0.6-0.3-0.8
		c0,0-0.1-0.1-0.1-0.1c0-0.1,0.1-0.1,0.1-0.1c0.4-0.1,0.7-0.4,0.9-0.7c0.1-0.1,0.1-0.1,0.1-0.2c0-0.3,0.1-0.4,0.3-0.5
		c0.1-0.1,0.3-0.3,0.3-0.5c0.1-0.3-0.1-0.6-0.5-0.6c-0.2,0-0.4,0-0.6,0c0-0.1,0-0.1,0-0.2c0-0.2,0.1-0.5,0.1-0.7c0-0.1,0-0.3,0-0.4
		c0-0.3-0.2-0.5-0.5-0.6c0-0.1,0-0.1,0.1-0.2c0.3-0.6,0.4-1.3,0.4-2.1c0-0.2-0.1-0.4-0.1-0.6c-0.2-0.4-0.6-0.6-0.9-0.4
		c-0.2,0.1-0.4,0.4-0.5,0.6c-0.1,0.1-0.1,0.3-0.2,0.5c0,0.1,0,0.1-0.1,0.1c0.1,0,0.1-0.1,0.1-0.1c0,0-0.1-0.1-0.1-0.1
		c0-0.1,0-0.2,0-0.3c0-0.1,0-0.2,0-0.3c0-0.3-0.3-0.5-0.6-0.5c-0.1,0-0.3,0.1-0.4,0.1c-0.2,0.1-0.3,0.3-0.4,0.5
		C54.1,4,54,4.4,54,4.8c0,0.2,0,0.3-0.2,0.3c-0.1,0.1-0.2,0.2-0.3,0.3c-0.1,0.1-0.1,0.1-0.2,0.2c-0.1-0.1-0.1-0.1-0.2-0.2
		c-0.4-0.3-0.7-0.4-0.9-0.1C52.1,5.4,52,5.6,52,5.7c0,0.1,0,0.3,0,0.4c-0.3,0-0.4,0.3-0.4,0.6c0,0.3,0,0.7,0,1
		c-0.1,0.1-0.3,0.2-0.4,0.4c0,0.2-0.1,0.4-0.1,0.6c-0.1,0-0.2-0.1-0.3-0.1c-0.4-0.1-0.6-0.1-0.9,0.1c-0.2,0.2-0.3,0.4-0.4,0.7
		c0,0.2-0.1,0.3-0.1,0.5c-0.1,0-0.1,0-0.2,0c-0.2,0-0.4,0-0.4,0.2c0,0.1-0.1,0.1-0.1,0.2c0,0.6,0.1,1.2,0.5,1.8
		c0.1,0.1,0.1,0.2,0.3,0.2c-0.2-0.4-0.3-0.9-0.4-1.3c0-0.2,0-0.4,0-0.7c0-0.1,0.1-0.1,0.1-0.2c0.1,0.1,0.1,0.2,0.1,0.2
		c0.1,0.3,0.1,0.6,0.2,0.9c0,0.1,0.1,0.3,0.3,0.5c0-0.2,0-0.3,0-0.4c0-0.1,0-0.2,0-0.3c0.1-0.1,0.1-0.3,0-0.5
		c-0.1-0.6,0-1.1,0.3-1.5c0.2-0.4,0.8-0.2,1,0.3c0,0.1,0,0.1,0.1,0.2c0,0-0.1,0.1-0.2,0.1c-0.4,0.1-0.6,0.4-0.6,0.7
		c-0.1,0.3-0.1,0.6-0.1,1c0,0.1,0,0.2,0,0.4c-0.4,0.1-0.5,0.4-0.5,0.7c0,0.2,0,0.5,0,0.7c-0.1,0-0.1-0.1-0.2-0.1
		c-0.2-0.2-0.5-0.5-0.7-0.7c-0.1-0.1-0.2-0.1-0.3-0.2c-0.4-0.2-0.6-0.1-0.6,0.3c0,0.1,0,0.3,0.1,0.5c0,0.1,0.1,0.3,0.1,0.4
		c0,0-0.1,0-0.1,0c-0.4-0.1-0.5,0.1-0.6,0.4c-0.1,0.2-0.1,0.5-0.1,0.8c0,0.1,0.1,0.3,0.1,0.4c0,0.1,0,0.2,0,0.2
		c-0.1,0.2-0.2,0.5-0.2,0.7c0,0.1,0,0.1,0,0.2c-0.1-0.1-0.1-0.2-0.2-0.3c-0.2-0.2-0.3-0.5-0.5-0.7c-0.1-0.1-0.2-0.2-0.3-0.3
		c-0.3-0.2-0.6-0.2-0.7,0.1c-0.1,0.2-0.1,0.5,0,0.7c0,0.1,0.1,0.3,0.1,0.5c-0.1-0.1-0.2-0.2-0.3-0.3c-0.1-0.1-0.2-0.2-0.3-0.3
		c-0.3-0.2-0.6-0.2-0.8,0.1c0,0.1-0.1,0.2,0,0.4c0.1,0.9,0.4,1.9,1,2.8c0,0,0.1,0.1,0.1,0.1c0,0,0,0,0,0c0.1,0,0-0.1,0-0.1
		c-0.2-0.6-0.5-1.2-0.6-1.8c-0.1-0.3-0.1-0.5-0.1-0.8c0-0.1,0-0.2,0-0.2c0-0.1,0.1-0.1,0.2,0c0.1,0.1,0.3,0.2,0.4,0.4
		c0.3,0.3,0.5,0.7,0.6,1.1c0,0.1,0,0.3,0,0.4c0.1,0,0.2,0,0.3,0.1c0,0,0,0.1,0,0.1c-0.4,0.3-0.5,0.8-0.6,1.4c0,0.1,0,0.2-0.1,0.4
		c-0.1-0.1-0.2-0.2-0.3-0.3c-0.2-0.2-0.4-0.4-0.6-0.7c-0.1-0.1-0.1-0.1-0.2-0.2c-0.6-0.4-1-0.3-1.1,0.3c0,0.2,0,0.4,0,0.5
		c0,0.2,0.1,0.5,0.2,0.7c0.3,0.9,0.8,1.8,1.4,2.6c0.1,0.2,0.2,0.3,0.4,0.5c0.1,0.2,0.3,0.4,0.6,0.4c0-0.1,0-0.1,0-0.2
		c-0.1-0.2-0.3-0.5-0.4-0.7c-0.6-0.9-1-1.8-1.4-2.7c-0.1-0.3-0.2-0.6-0.2-0.9c0-0.1,0-0.2,0-0.3s0.1-0.1,0.2,0
		c0.2,0.1,0.3,0.2,0.5,0.4c0.4,0.4,0.7,0.8,0.9,1.3c0.1,0.1,0.1,0.3,0.1,0.4c0,0.3,0.1,0.6,0.1,0.9c0,0.2,0.1,0.4,0.2,0.6
		c0,0.1,0.1,0.1,0.2,0.2c0.1-0.2,0-0.5,0-0.7c0.1,0,0.1,0.1,0.2,0.1c0.1,0.1,0.3,0.1,0.3,0c0-0.1,0-0.3-0.1-0.4
		c-0.1-0.3-0.3-0.6-0.4-0.9c0-0.1-0.1-0.3-0.1-0.4c0-0.6,0-1.2,0.2-1.7c0.1-0.1,0.1-0.3,0.3-0.3c0.1,0,0.2,0,0.3,0.1
		c0.1,0.1,0.2,0.2,0.2,0.4c0.1,0.3,0.2,0.5,0.2,0.8c0.1,0.5,0,0.9,0,1.3c0,0.1-0.1,0.3-0.1,0.4s0,0.3,0.1,0.5c0.1,0.1,0.1,0.2,0,0.3
		c0,0.1-0.1,0.1-0.1,0.2c-0.4,0.3-0.6,0.7-0.8,1.1c-0.2,0.4-0.4,0.7-0.6,1.1c-0.2,0.4-0.4,0.7-0.6,1c-0.2,0.3-0.3,0.6-0.5,0.9
		c0,0-0.1,0.1-0.1,0.2c-0.1-0.3-0.2-0.5-0.3-0.7c-0.1-0.2-0.2-0.5-0.5-0.6c-0.3-0.3-0.5-0.3-0.6,0c0,0.2,0,0.4,0,0.6
		c0.1,0.5,0.3,1,0.5,1.6c0.1,0.2,0.2,0.4,0.3,0.5c-0.1,0.4-0.2,0.8-0.3,1.2c-0.1,0.6-0.3,1.1-0.5,1.7c-0.2,0.5-0.4,1-0.6,1.5
		c-0.3,0.7-0.5,1.4-0.7,2.1c0,0.2-0.1,0.3-0.2,0.5c-0.1-0.1-0.1-0.1-0.1-0.2c-0.1-1.5-0.6-2.9-1.4-4.4c-0.6-1.1-1.3-2.2-2-3.2
		c-0.5-0.8-1-1.5-1.6-2.2c-0.2-0.3-0.5-0.6-0.7-0.9c-0.1-0.1-0.2-0.2-0.3-0.3c-0.2-0.1-0.4-0.1-0.5,0c-0.1,0.1-0.1,0.2-0.1,0.4
		c0,1.4,0.1,2.7,0.5,4.1c0.4,1.2,0.8,2.5,1.1,3.7c0.4,1.1,0.9,2.2,1.5,3.3c0.5,0.8,0.9,1.6,1.2,2.4c0.3,0.6,0.4,1.2,0.4,1.8
		c0,0.4,0,0.8-0.2,1.2c-0.2,0.5-0.3,0.9-0.4,1.4c-0.2,1-0.6,2-0.9,2.9c-0.3,1-0.6,1.9-0.9,2.9c-0.1,0.5-0.3,0.9-0.5,1.4
		c-0.2,0.5-0.3,1.1-0.5,1.6c0,0.1,0,0.1-0.1,0.2c-0.4,0.4-0.8,0.7-1.2,1c-0.1,0.1-0.1,0.1-0.2,0.2c-0.3,0.3-0.7,0.6-1,1
		c-0.3,0.3-0.6,0.6-0.9,0.9c-1.4,1.6-2.9,3.1-4.3,4.7c-0.6,0.9-1.5,1.7-2.2,2.5c0-0.1,0-0.1,0.1-0.2c0-0.1,0.1-0.1,0.1-0.2
		c0.6-0.9,1.1-1.9,1.4-2.9c0.3-0.9,0.4-1.8,0.5-2.7c0.1-1.5,0.1-3-0.1-4.5c-0.1-0.7-0.3-1.4-0.5-2c-0.3-1.1-0.5-2.3-0.8-3.4
		c-0.4-1.6-0.9-3.1-1.6-4.7c-0.3-0.8-0.6-1.6-1-2.4c-0.1-0.3-0.3-0.6-0.4-0.9c-0.1-0.1-0.1-0.3-0.2-0.4c-0.1-0.2-0.3-0.2-0.5-0.2
		c-0.2,0-0.3,0.2-0.4,0.3c-0.2,0.3-0.4,0.6-0.6,1c-0.6,1.2-0.9,2.5-1,4c0,1.1,0,2.3,0.1,3.5c0.2,2.1,0.5,4.2,0.8,6.4
		c0.3,1.8,0.6,3.6,0.9,5.4c0.1,0.7,0.2,1.4,0.3,2.1c0.1,0.6,0.1,1.2,0.1,1.8c0,0.2,0,0.5,0.1,0.7c0.2,0.9,0.1,1.6-0.1,2.3
		c0,0.2-0.1,0.3-0.2,0.5c-0.1,0.1-0.1,0.1-0.2,0.2c-0.6,0.7-1.2,1.4-1.8,2.1c-0.4,0.5-0.7,1-1,1.5c-0.2,0.3-0.4,0.6-0.6,0.8
		c-0.1,0.2-0.2,0.3-0.3,0.5c-0.8,1.2-1.6,2.4-2.2,3.6c-0.2,0.4-0.4,0.7-0.5,1.1C17,74.7,17,74.8,17,74.9c0,0-0.1,0.1-0.1,0.1
		c0,0,0,0,0,0c0,0,0.1-0.1,0.1-0.1c0,0-0.1-0.1-0.1-0.1c0-0.1,0-0.2,0.1-0.3c0.1-0.7,0.3-1.3,0.4-2c0.2-1.6,0-3.2-0.5-5
		c-0.3-1.1-0.8-2.1-1.2-3.2c-0.3-0.8-0.6-1.5-0.9-2.3c-0.7-1.8-1.5-3.6-2.4-5.4c-0.4-0.9-0.8-1.7-1.2-2.6c-0.1-0.2-0.2-0.4-0.3-0.5
		c-0.1-0.2-0.3-0.2-0.4-0.1c-0.1,0.1-0.1,0.2-0.1,0.3c-0.3,0.7-0.4,1.5-0.4,2.4c-0.1,1.1,0,2.1,0.1,3.3c0.2,1.4,0.4,2.7,0.7,4.1
		c0.3,1.6,0.8,3.1,1.4,4.7c0.4,1.2,0.9,2.4,1.4,3.6c0.4,1,0.7,2,1.1,3c0.2,0.6,0.4,1.2,0.5,1.8c0.1,0.3,0.1,0.5,0.2,0.8
		c0,0.1,0.1,0.3,0.1,0.4c0,0.9,0.1,1.8,0,2.7c0,0.2,0,0.3-0.1,0.5c-0.1,0.4-0.2,0.8-0.3,1.2c-0.2,1-0.5,2-0.7,3
		c-0.1,0.4-0.1,0.7-0.2,1.1c-0.1,0.7-0.2,1.5-0.4,2.2c-0.1,0.3-0.1,0.7-0.1,1c-0.4,0.2-0.8,0.4-1.3,0.5c-0.6,0.2-1.1,0.6-1.6,0.9
		c-0.6,0.3-1.1,0.6-1.7,0.9c-0.3,0.2-0.7,0.3-1.2,0.2c-0.1,0-0.2,0-0.2,0c-0.4,0.1-0.9,0.3-1.1,0.6c-0.1,0.1-0.1,0.1-0.2,0.2
		c-0.2,0.2-0.2,0.4-0.1,0.7c0.1,0.3,0.2,0.6,0.4,0.9c0.2,0.4,0.6,0.7,1,0.8c0.5,0.2,0.9,0.2,1.2,0c0.1-0.1,0.3-0.1,0.4-0.2
		c0.5-0.5,1-0.9,1.6-1.2c0.3-0.2,0.6-0.5,1-0.7c0.6-0.3,1.2-0.6,1.8-0.9c0.1,0.1,0.1,0.1,0.1,0.2c0,0.9,0.1,1.8,0.1,2.7
		c0,0.2,0,0.5,0,0.7c0,0.7,0,1.4,0,2.2c0,0.2,0.1,0.5,0.1,0.8c0.1,0.7,0.1,1.5,0.2,2.2c0,0.2-0.1,0.4-0.1,0.6
		c-0.1,0.2-0.1,0.4-0.1,0.7c0,0.2,0,0.4,0.2,0.5c0.1,0.1,0.1,0.2,0.1,0.3c0,0.1,0.1,0.3,0.2,0.3c0.7,0.4,1.3,0.5,1.9,0.3
		c0.4-0.1,0.6-0.4,0.6-0.8c0-0.2,0-0.4,0-0.5c0,0,0-0.1,0-0.1c-0.2-0.4-0.3-0.8-0.4-1.1c-0.1-0.4-0.2-0.8-0.3-1.3
		c-0.1-0.4-0.1-0.8-0.1-1.2c-0.1-1-0.1-2-0.1-2.9c0-0.5,0-1.1,0.1-1.6c0-0.4,0-0.7,0.1-1.1c0.1-0.7,0.1-1.4,0.1-2.1
		c0-0.2,0.1-0.4,0.3-0.5c0.1,0,0.1,0,0.1-0.1c0.4-0.4,0.8-0.7,1.2-1.1c1.1-1.1,2.1-2.2,3.1-3.4c0.2-0.3,0.5-0.5,0.7-0.8
		c0.1-0.1,0.3-0.2,0.4-0.2c0.5-0.1,1.1-0.1,1.7,0c0.5,0.1,1,0.2,1.5,0.3c2.3,0.6,5.6,0.4,7.1,0c1-0.3,1.8-0.7,2.6-1.2
		c1.3-0.8,2.3-1.9,3.3-3c0.2-0.3,0.4-0.6,0.6-0.9c0.1-0.2,0.2-0.4,0.2-0.6c0-0.3-0.2-0.5-0.5-0.6c-0.1,0-0.3,0-0.4-0.1
		c-0.6,0-1.1,0-1.6,0.1c-2.1,0.2-4,0.7-5.8,1.3c-0.9,0.3-1.7,0.6-2.5,1c-0.5,0.2-0.9,0.4-1.4,0.6c-0.9,0.4-1.8,0.8-2.7,1.2
		c-0.2,0.1-0.5,0.2-0.7,0.3c-0.1,0-0.1,0-0.3,0.1c0.1-0.2,0.2-0.4,0.4-0.6c0.4-0.5,0.8-1,1.2-1.6c0.3-0.4,0.6-0.8,0.9-1.2
		c0.4-0.6,0.8-1.2,1.2-1.8c0.6-0.9,1.2-1.8,1.7-2.7c0.5-0.8,1-1.7,1.4-2.5c0-0.1,0.1-0.1,0.1-0.2c0.1,0,0.2,0,0.3,0.1
		c0,0,0.1,0,0.1,0c0.1-0.2,0.3-0.3,0.5-0.4c0.5-0.2,1.1-0.4,1.7-0.4c1.4-0.1,2.7-0.3,4.1-0.4c0.3,0,0.5-0.1,0.8-0.1
		c1.5-0.2,2.9-0.6,4.1-1.2c0.9-0.5,1.7-1.1,2.5-1.7c0.7-0.5,1.3-1.2,1.9-1.8c0.3-0.4,0.6-0.9,1-1.3c0.1-0.1,0.1-0.2,0.1-0.3
		c0-0.2-0.1-0.4-0.3-0.4c-0.1,0-0.2,0-0.3,0c-2.1,0.1-4,0.6-5.9,1.2c-0.5,0.2-1.1,0.3-1.6,0.5c-1.8,0.6-3.4,1.3-5,2.3
		c-0.7,0.5-1.4,0.9-2.2,1.4c0-0.1,0-0.2,0.1-0.2c0.2-0.4,0.4-0.8,0.6-1.2c0.2-0.4,0.6-0.7,1-0.9c1.1-0.5,2.2-1,3.4-1.3
		c1-0.2,1.9-0.7,2.8-1.1c0.7-0.3,1.3-0.7,1.9-1.2c0.4-0.3,0.7-0.6,1.1-1c1-1,2-2.1,2.8-3.3c0.6-0.8,1.2-1.7,1.8-2.6
		c0.2-0.4,0.5-0.9,0.6-1.3c0-0.2,0.1-0.3,0.1-0.5c0-0.4-0.3-0.7-0.7-0.7c-0.2,0-0.5,0-0.7,0.1c-0.5,0.1-0.9,0.3-1.3,0.5
		c-1,0.5-1.9,1.2-2.8,1.8c-0.7,0.5-1.5,1.1-2.2,1.7c-0.9,0.7-1.7,1.5-2.5,2.4c-0.8,0.9-1.6,1.7-2.3,2.6c-0.5,0.5-0.9,1.2-1.3,1.7
		c-0.1,0.2-0.3,0.4-0.4,0.6c0,0-0.1,0.1-0.1,0.1c-0.1-0.1-0.1-0.1,0-0.2c0.4-1.1,0.9-2.2,1.3-3.3c0.4-1,0.8-1.9,1.2-2.9
		c0.3-0.7,0.7-1.4,1-2c0.4-0.8,0.7-1.6,1-2.4c0.2-0.6,0.5-1.2,0.7-1.7c0.3-0.1,0.6-0.2,0.8-0.4c0.7-0.4,1.5-0.6,2.4-0.7
		c1-0.1,2.1-0.1,3.2-0.1c1,0,2,0.1,3,0c1.3-0.1,2.6-0.5,3.8-0.8c1.4-0.4,2.6-1,3.7-1.8c0.4-0.3,0.8-0.6,1.1-0.9
		c0.1-0.1,0.2-0.2,0.3-0.4c0.1-0.2,0-0.5-0.3-0.5c-0.1,0-0.3-0.1-0.4-0.1c-0.6-0.1-1.1-0.1-1.7-0.1c-0.7,0-1.3,0-2-0.1
		c-1-0.1-2.1-0.1-3,0.1c-1.4,0.2-2.9,0.4-4.2,0.7c-1.1,0.3-2.1,0.6-3.1,1c-0.1,0-0.2,0.1-0.3,0.1c0.1-0.1,0.1-0.1,0.2-0.2
		c1.3-0.7,2.5-1.4,3.8-2c0.5-0.3,1.2-0.5,1.8-0.7c0.3-0.1,0.7-0.3,1-0.4c1-0.5,2.1-1,3.1-1.5c0.6-0.3,1.2-0.6,1.8-1
		c0.3-0.1,0.5-0.3,0.8-0.5c0.4,0.3,0.8,0.3,1.2,0.3c0.5,0,1,0,1.5-0.1c0.1,0,0.3-0.1,0.4-0.2c0.2-0.1,0.2-0.4-0.1-0.7
		c-0.2-0.1-0.3-0.2-0.5-0.2c-0.1,0-0.2,0-0.3,0c-0.1,0-0.2,0-0.4,0c0.1-0.1,0.1-0.1,0.1-0.1c0.8-0.4,1.5-0.8,2.3-1.2
		c0.5-0.2,0.8-0.5,1.3-0.7c0.5-0.2,0.9-0.4,1.4-0.6c0,0,0.1,0,0.1,0c0.1,0.1,0.1,0.2,0.1,0.3c0.1,0.6,0.2,1.2,0.3,1.8
		c0.1,0.3,0.2,0.6,0.3,0.9c0.1,0.2,0.3,0.5,0.5,0.6c0.4,0.3,0.8,0.4,1,0c0.1-0.2,0.2-0.4,0.2-0.6c0-0.4-0.1-0.9-0.3-1.3
		c-0.1-0.1-0.1-0.2-0.2-0.4c0.2,0.1,0.4,0.2,0.5,0.3c0.7,0.5,1.5,0.9,2.2,1.1c0.2,0.1,0.5,0.1,0.7,0.2c0.4,0,0.5-0.2,0.3-0.6
		c-0.1-0.2-0.2-0.3-0.3-0.5c-0.1-0.2-0.2-0.3-0.4-0.5c0,0,0,0,0-0.1c0.1,0,0.2,0,0.4,0c0.2,0,0.3-0.2,0.1-0.4
		c-0.1-0.1-0.2-0.3-0.3-0.4c0.1,0,0.2,0,0.2,0c0.4,0,0.8,0.1,1.1,0.1c0.4,0,0.7-0.2,0.9-0.5c0-0.1,0-0.1,0.1-0.2
		c0.2,0,0.4,0,0.5-0.1c0.2,0,0.5-0.1,0.7-0.2c0.4-0.2,0.3-0.6-0.1-0.9c-0.1-0.1-0.3-0.2-0.5-0.3c-0.1-0.1-0.2-0.1-0.4-0.2
		c0-0.1,0-0.1,0.1-0.1c0.1-0.1,0.3-0.1,0.4-0.2c0.2-0.2,0.2-0.5-0.1-0.7c-0.1-0.1-0.2-0.1-0.3-0.2c0-0.1,0.1-0.2,0.1-0.2
		c0-0.1,0.1-0.1,0.1-0.2c0.1,0,0.1,0,0.1,0.1c0.4,0.3,0.8,0.5,1.2,0.7c0.6,0.2,1.2,0.4,1.8,0.6c0.2,0.1,0.5,0.1,0.7,0.1
		c0.4,0,0.5-0.3,0.3-0.7c-0.1-0.2-0.4-0.5-0.6-0.6c-0.3-0.2-0.6-0.4-0.9-0.6c0,0,0-0.1,0-0.1c0.3-0.1,0.5-0.2,0.6-0.4
		c1,0.5,1.8,0.5,2.7,0.4c0.1,0,0.3,0,0.4-0.1c0.2-0.1,0.2-0.3,0-0.6c-0.2-0.3-0.5-0.5-0.9-0.8C73.8,34.2,73.4,34,73,34
		c-0.1,0-0.2,0-0.4,0c0,0-0.1-0.1-0.1-0.1c0,0.1-0.1,0.1-0.2,0c-0.1,0.1-0.1,0.1-0.2,0.2c-0.1,0-0.1,0-0.2,0c0,0-0.1,0-0.2,0
		c-0.1,0-0.1,0.1-0.2,0.1c-0.1,0-0.2,0-0.1,0.2c0.1,0.1,0.2,0.1,0.3,0.1c0.2,0,0.4-0.1,0.6-0.1c0.3,0,0.6,0,0.9,0
		c0.5,0.1,0.9,0.3,1.3,0.7c0.1,0.1,0.1,0.1,0.1,0.2c-0.4,0.1-0.9,0.1-1.4,0c-0.4,0-0.7-0.1-1.1-0.2c-0.1,0-0.2-0.1-0.3-0.2
		c-0.3-0.3-0.7-0.5-1.1-0.5c-0.1,0-0.1,0-0.2-0.1c0-0.1,0.1-0.1,0.2-0.1c0.2-0.1,0.5-0.2,0.8-0.2c0.1,0,0.2,0,0.2,0.1
		c0-0.1,0.1-0.1,0.1,0c0.1,0,0.1,0,0.2,0c0.1-0.1,0.1-0.1,0.2-0.2C72.5,33.9,72.6,33.9,72.6,33.9z M31.7,71.4
		C31.7,71.4,31.7,71.4,31.7,71.4C31.6,71.4,31.6,71.4,31.7,71.4C31.7,71.4,31.7,71.4,31.7,71.4c0,0,0.1-0.1,0.2,0
		c0.1-0.1,0.2-0.1,0.4-0.1c0.8-0.2,1.7-0.3,2.5-0.6c0.9-0.3,1.8-0.6,2.6-1c1.4-0.7,2.7-1.6,3.8-2.6c0.4-0.3,0.7-0.7,1-1.1
		c0,0,0-0.1,0-0.2c-0.2,0.2-0.4,0.3-0.6,0.4c-0.9,0.7-1.8,1.4-2.7,2c-1.4,0.9-2.9,1.5-4.5,2c-0.7,0.2-1.4,0.4-2.2,0.5
		c-0.5,0.1-1.1,0.2-1.5,0.5c-0.1,0.1-0.2,0.1-0.4,0c0-0.1,0.2-0.2,0.3-0.3c0.4-0.3,0.8-0.6,1.2-0.9c0.9-0.6,1.7-1.1,2.6-1.7
		c1.5-0.8,3.2-1.5,4.9-2.1c1.5-0.5,3-0.9,4.5-1.2c0.6-0.1,1.1-0.1,1.7-0.2c0,0,0.1,0,0.2,0c0,0.1-0.1,0.2-0.1,0.2
		c-0.4,0.6-0.9,1.1-1.3,1.6c-0.9,0.9-1.9,1.7-3,2.4c-1.4,0.9-2.9,1.5-4.6,1.6c-1.6,0.2-3.1,0.4-4.7,0.5c-0.1,0-0.1,0-0.2,0
		C31.8,71.4,31.8,71.4,31.7,71.4z M63.7,39.9C63.7,39.9,63.7,39.9,63.7,39.9C63.8,39.9,63.7,39.9,63.7,39.9
		C63.7,39.9,63.6,39.9,63.7,39.9c-0.3,0-0.5-0.2-0.8-0.3c0-0.1,0.1-0.1,0.2,0C63.3,39.6,63.5,39.7,63.7,39.9z M65.7,39.7
		C65.7,39.7,65.7,39.7,65.7,39.7C65.7,39.7,65.7,39.7,65.7,39.7C65.7,39.7,65.7,39.7,65.7,39.7c-0.3,0-0.6-0.2-0.9-0.3
		c-0.1,0-0.2-0.1-0.3-0.2C64.9,39.3,65.3,39.5,65.7,39.7C65.6,39.6,65.6,39.7,65.7,39.7z M66.2,39.4C66.2,39.4,66.2,39.4,66.2,39.4
		C66.1,39.4,66.1,39.4,66.2,39.4C66.2,39.4,66.2,39.4,66.2,39.4c0-0.1,0.1-0.1,0.2-0.1c0.4,0.1,0.9,0.1,1.3,0.2c0,0,0.1,0,0.1,0.1
		C67.6,40,67.3,40.1,67,40C66.7,39.8,66.5,39.6,66.2,39.4z M76.9,29.4c0.1,0,0.1,0.1,0.1,0.1c0,0.2,0,0.5,0,0.7
		c-0.2,0-0.3,0.1-0.5,0.1c-0.1,0-0.3,0.1-0.5,0.1c-0.1-0.9,0-1.6,0.3-2.3c0.1-0.1,0.1-0.2,0.3-0.3c0.1,0.2,0.1,0.2,0.2,0.3
		c0,0.5,0,0.9-0.2,1.3c0,0,0,0.1,0.1,0.2C76.8,29.6,76.8,29.5,76.9,29.4C76.9,29.3,76.9,29.3,76.9,29.4
		C76.9,29.4,76.9,29.4,76.9,29.4z M65.1,36.1C65.1,36.1,65.1,36.1,65.1,36.1c0.1,0,0.1,0,0.1,0C65.2,36.2,65.2,36.2,65.1,36.1
		C65.2,36.2,65.2,36.2,65.1,36.1C65.2,36.1,65.1,36.1,65.1,36.1c0,0.1,0.1,0.2,0.2,0.3c-0.3,0.4-0.8,0.6-1.2,0.9
		c-0.1,0-0.2,0.1-0.3,0.1c-0.2,0-0.1,0.2-0.2,0.2c-0.4,0.1-0.8,0.3-1.1,0.5c-0.1,0-0.2,0-0.3,0c0-0.1-0.1-0.1-0.1-0.2
		c0,0,0-0.1,0-0.1c0,0,0-0.1,0.1-0.1c0.2-0.2,0.4-0.3,0.6-0.5C63.5,36.8,64.3,36.4,65.1,36.1z M60.6,38.1c-0.1,0.2-0.4,0.2-0.6,0.3
		c-0.1-0.2-0.2-0.4-0.3-0.6c-0.1-0.3-0.3-0.5-0.4-0.8c-0.1-0.2-0.1-0.5-0.1-0.7c0-0.1,0.1-0.3,0.2-0.3c0.1,0,0.3,0,0.5,0.1
		c0,0.1,0.1,0.3,0.1,0.4c0.1,0.2,0.1,0.4,0.3,0.6c0.2,0.3,0.2,0.6,0.1,0.8C60.4,38,60.4,38,60.6,38.1c0.2,0,0.2-0.1,0.2-0.3
		c0-0.6-0.1-1.2-0.4-1.8c-0.1-0.1-0.1-0.2-0.1-0.3c-0.1-0.6-0.2-1.1-0.2-1.6c0-0.1,0.1-0.2,0.1-0.4s0.1-0.1,0.4,0
		c0.1,0.2,0.1,0.4,0.2,0.5c0.1,0.1,0.2,0.1,0.2,0.1c0.2,0.3,0.2,0.6,0.1,1c-0.1,0.4-0.1,0.9-0.1,1.3c0,0.5,0,0.9,0.1,1.4
		C61,38.1,60.9,38.2,60.6,38.1z M51.4,14.2c0,0-0.1-0.1-0.1-0.1c0-0.1,0-0.3,0-0.4c-0.1-0.5-0.1-1-0.4-1.5c0-0.1-0.1-0.2,0-0.2
		c0-0.4,0.1-0.7,0.1-1.1c0-0.1,0.1-0.3,0.1-0.4s0.2-0.2,0.3-0.2c0.1,0,0.3,0,0.4,0.1c0.1,0.1,0.2,0.3,0.2,0.5
		c0.2,0.4,0.2,0.8,0.2,1.2c0,0.2,0,0.4-0.1,0.5c0,0.1,0,0.2,0,0.3c-0.1,0-0.2,0.1-0.3,0.1c-0.1,0.1-0.1,0.2-0.2,0.4
		C51.5,13.6,51.4,13.8,51.4,14.2C51.4,14.2,51.4,14.2,51.4,14.2C51.4,14.2,51.4,14.2,51.4,14.2z M22.9,83.8
		C22.9,83.8,22.9,83.8,22.9,83.8C22.9,83.8,22.9,83.8,22.9,83.8c0.3-0.2,0.6-0.3,1-0.5c0.9-0.4,1.7-0.8,2.6-1.1
		c0.5-0.2,1-0.5,1.5-0.7c0.9-0.4,1.9-0.7,2.8-1c1.9-0.7,4-1.1,6.2-1.3c0.3,0,0.6,0,0.9,0c0.1,0,0.2,0,0.2,0.1c0,0.2,0,0.4-0.1,0.5
		c-0.2,0.3-0.4,0.6-0.6,0.9c-0.9,1-1.9,2-3,2.7c-0.8,0.5-1.6,1-2.6,1.2c-2,0.5-4.2,0.5-6.5,0.1c-0.4-0.1-0.8-0.1-1.1-0.3
		c0.2-0.1,0.4-0.1,0.6-0.1c1.6-0.1,3.2-0.3,4.7-0.7c1.5-0.4,2.9-0.9,4-1.7c0.5-0.3,0.9-0.7,1.2-1.2c0,0,0.1-0.1,0-0.1
		c0,0-0.1,0-0.1,0.1c-0.5,0.5-1.1,0.9-1.7,1.2c-1.9,0.9-3.9,1.5-6.2,1.8c-1.2,0.1-2.4,0.2-3.6,0.4C23,83.8,23,83.8,22.9,83.8z
		 M25.5,62.4c0,0-0.1-0.1-0.1-0.1c0-0.1,0.1-0.3,0.1-0.4c0.6-1.9,0.9-4,1-6.1c0.1-3.5-0.4-7.1-1.4-10.8c-0.3-1-0.7-2.1-1.2-3.1
		c0,0,0-0.1-0.1-0.1c0.1,0.1,0.1,0.3,0.2,0.5c0.4,1.2,0.8,2.3,1,3.5c0.3,1.8,0.6,3.5,0.8,5.2c0.5,4.2,0.2,8-0.9,11.6
		c0,0.1-0.1,0.2-0.1,0.3c0-0.2-0.1-0.2-0.1-0.3c-0.1-0.5-0.1-1-0.1-1.5c-0.1-1.4-0.2-2.8-0.5-4.2c-0.4-2.2-0.7-4.5-1.1-6.7
		c-0.2-1-0.3-2.1-0.4-3.1c-0.2-1.4-0.2-2.8-0.2-4.1c0.1-1.7,0.5-3.2,1.2-4.6c0.1-0.2,0.2-0.4,0.4-0.5c0.1,0.1,0.1,0.1,0.1,0.2
		c0.1,0.2,0.2,0.5,0.3,0.7c0.3,0.8,0.6,1.6,1,2.4c0.7,1.5,1.1,3.1,1.5,4.6c0.4,1.5,0.7,3,1.1,4.5c0.1,0.3,0.1,0.6,0.2,1
		c0.3,2.1,0.2,4-0.1,5.9c-0.2,1.1-0.6,2.1-1.1,3C26.5,60.7,26,61.6,25.5,62.4C25.5,62.4,25.5,62.4,25.5,62.4z M61.9,38
		c-0.1,0.1-0.3,0.1-0.3,0.2c-0.1,0.2-0.3,0.2-0.4,0.3c-0.1,0.1-0.3,0.2-0.3,0.3c-0.1,0.2-0.2,0.3-0.4,0.4c-0.1,0-0.2,0.1-0.3,0.1
		c-0.4,0.2-0.8,0.3-1.2,0.5c-0.7,0.4-1.5,0.7-2.2,1.1c-1.5,0.8-3,1.6-4.5,2.4c-0.5,0.3-1.1,0.6-1.7,0.9c-1,0.5-2,1-3,1.5
		c-0.4,0.2-0.7,0.3-1.1,0.5c-0.8,0.3-1.6,0.5-2.4,1c-0.5,0.3-1,0.5-1.4,0.8c-1,0.5-2,1.1-2.9,1.8c-0.9,0.7-1.8,1.4-2.6,2.2
		c-1,1-2,1.9-2.9,3c-0.9,1.1-1.8,2.1-2.7,3.2c-0.4,0.5-0.8,0.9-1.3,1.4c-0.4,0.4-0.8,0.8-1.2,1.1c-0.6,0.5-1.1,1-1.6,1.6
		c-0.4,0.4-0.9,0.9-1.2,1.3c-0.5,0.6-0.9,1.1-1.3,1.7c-0.5,0.7-1,1.4-1.4,2c-0.3,0.4-0.6,0.8-0.9,1.2c-0.3,0.4-0.6,0.8-0.8,1.2
		c-0.8,1.2-1.5,2.5-2.1,3.8c-0.6,1.2-1.1,2.5-1.5,3.8c-0.5,1.4-0.9,2.8-1.3,4.2c0,0.1-0.1,0.1-0.1,0.2c0,0.4-0.1,0.7-0.2,1.1
		c-0.4,1.2-0.6,2.4-0.9,3.6c-0.1,0.5-0.2,0.9-0.2,1.4c0,0.7-0.1,1.4-0.3,2.1c-0.2,1-0.2,2-0.3,3c0,0.4,0,0.7-0.1,1.1
		c0,0.6-0.1,1.1-0.1,1.7c0,1,0.1,2,0.1,2.9c0.1,1.1,0.3,2.2,0.7,3.4c0,0.1,0.1,0.3,0.1,0.4c-0.6,0.2-1.2,0.1-1.8,0.4
		c0-0.1-0.1-0.2-0.1-0.2c0-0.2,0-0.4,0.1-0.6c0.1-0.2,0.2-0.5,0.2-0.8c0-0.7-0.1-1.3-0.2-2c-0.2-1-0.2-1.9-0.2-2.9
		c0-0.4,0-0.7,0-1.1c0-0.6-0.1-1.2-0.1-1.9c0-1.8,0-3.6,0.3-5.3c0.1-0.4,0.1-0.8,0.2-1.2c0.1-0.8,0.3-1.5,0.4-2.3
		c0.2-0.8,0.3-1.5,0.5-2.2c0.2-0.8,0.4-1.6,0.6-2.4c0.1-0.4,0.2-0.7,0.3-1c0.5-1.8,1.1-3.6,2-5.2c0.4-0.7,0.7-1.3,1.1-2
		c0.3-0.5,0.6-0.9,0.9-1.3c0.2-0.3,0.4-0.6,0.6-0.9c0.3-0.5,0.7-0.9,1-1.4c0.3-0.5,0.6-0.9,1-1.3c0.1-0.1,0.2-0.3,0.4-0.5
		c0.1-0.2,0.3-0.4,0.5-0.5c0.3-0.2,0.5-0.4,0.7-0.7c0.1-0.1,0.1-0.2,0.2-0.3c0.3-0.4,0.6-0.7,0.9-1c1-1.1,1.9-2.1,2.9-3.2
		c0.4-0.4,0.7-0.9,1.1-1.3c1.5-1.7,3.1-3.3,4.6-5c0.2-0.2,0.3-0.3,0.5-0.5c0.3-0.2,0.5-0.5,0.8-0.7c0.6-0.5,1.1-1,1.6-1.5
		c0.5-0.5,1.1-0.9,1.6-1.4c0.2-0.2,0.4-0.3,0.6-0.5c0.4-0.3,0.8-0.5,1.1-0.8c0.6-0.5,1.2-0.9,1.9-1.3c0.7-0.5,1.5-0.9,2.2-1.3
		s1.5-0.8,2.4-1c0.2-0.1,0.5-0.2,0.7-0.3c0.7-0.4,1.4-0.7,2.2-1c0.8-0.4,1.7-0.7,2.5-1.1c0.5-0.3,1-0.5,1.5-0.8
		c0.4-0.2,0.8-0.3,1.1-0.5c0.3-0.2,0.7-0.3,1-0.5c0.7-0.3,1.4-0.6,2-1.1c0.8-0.6,1.8-1.1,2.8-1.5c0.2-0.1,0.4-0.1,0.6-0.2
		c0.3-0.1,0.5-0.3,0.6-0.6c0,0,0,0,0.1,0C61.8,37.9,61.9,38,61.9,38z M15.5,77.3c-0.1-0.3-0.1-0.6-0.2-1c-0.1-0.7-0.3-1.4-0.6-2
		c-0.1-0.2-0.1-0.4-0.2-0.6c-0.6-1.6-1.1-3.3-1.8-4.9c-0.7-1.8-1.2-3.5-1.6-5.2c-0.3-1.5-0.5-2.9-0.7-4.4c-0.2-1.1-0.2-2.1-0.1-3.1
		c0.1-0.6,0.2-1.2,0.3-1.8c0-0.1,0-0.2,0.1-0.2c0.2,0.3,0.4,0.6,0.5,0.9c0.4,1,0.9,2,1.4,3c0.6,1.3,1.1,2.5,1.6,3.8
		c0.4,0.9,0.8,1.8,1.1,2.7c0.4,1,0.8,1.9,1.1,2.9c0.6,1.8,0.8,3.5,0.5,5.2c-0.1,0.9-0.4,1.8-0.6,2.7c0,0,0,0-0.1,0.1
		c0-0.2,0-0.3,0-0.5c0-0.4-0.1-0.8-0.1-1.2c-0.2-2.2-0.8-4.4-1.6-6.6c-1-2.8-2-5.5-3-8.3c-0.1-0.2-0.2-0.5-0.3-0.7
		c0,0-0.1-0.1-0.2-0.2c0,0.2,0.1,0.3,0.1,0.4c0.3,1.3,0.7,2.6,1.1,3.9c0.3,0.9,0.6,1.8,0.9,2.7c0.5,1.4,1,2.8,1.4,4.2
		c0.6,2,1,3.9,1.1,5.8C15.7,75.6,15.7,76.5,15.5,77.3z M26.1,71.4c0,0-0.1,0.1-0.1,0.1c-0.1,0.2-0.1,0.4-0.2,0.6
		c-0.7,1.5-1.6,2.9-2.7,4.1c-0.9,0.9-1.8,1.7-2.9,2.3c-0.6,0.3-1.3,0.6-1.7,1.1c0,0-0.1,0-0.1,0c0.1-0.3,0.1-0.7,0.3-0.9
		c0.2-0.3,0.5-0.6,0.7-0.9c0.6-0.6,1.1-1.3,1.5-2c0.3-0.5,0.6-0.9,0.8-1.4c0.4-0.6,0.8-1.3,1.1-2c0.4-1,0.9-2,1.5-3
		c0.2-0.4,0.5-0.9,0.8-1.2c0.3-0.3,0.6-0.6,0.9-1c0.4-0.4,0.7-0.7,1.1-1.1c0.4-0.4,0.9-0.8,1.4-1.1c0.1,0,0.1,0,0.2-0.1
		c0,0.1,0.1,0.2,0.1,0.2c0,0.2,0,0.4,0,0.5c-0.1,2.4-0.5,4.6-1.3,6.8c-0.1,0.1-0.1,0.3-0.2,0.4c-0.5,0.9-1.1,1.7-1.6,2.6
		c-0.5,0.8-1.1,1.7-1.6,2.5c-0.1,0.1-0.2,0.3-0.4,0.3c-0.1,0-0.2,0.1-0.3,0.1c-0.6,0.3-1.2,0.6-1.9,0.7c-0.7,0.1-1.5,0.3-2.1,0.5
		c0,0-0.1,0-0.1,0c0.1-0.1,0.2-0.2,0.3-0.3c0.3-0.2,0.6-0.3,0.9-0.5c1-0.6,2-1.2,2.8-2.1c0.9-0.9,1.7-2,2.3-3.2
		c0.3-0.5,0.5-1.1,0.7-1.7C26.1,71.9,26.2,71.7,26.1,71.4z M50.4,32.4c-0.3,0.1-0.4,0.2-0.4,0.5c0,0.1,0,0.3-0.1,0.4
		c-0.4,2.1-1,4.2-1.8,6c-0.5,1-1,1.9-1.6,2.7c-0.5,0.7-1,1.5-1.5,2.1c-0.4,0.5-0.8,1-1.3,1.5c0,0,0,0.1-0.1,0c0.2-0.7,0.3-1.4,0.5-2
		c0.3-0.8,0.6-1.6,0.8-2.4c0.2-1,0.5-1.9,0.8-2.8c0.4-1.1,0.8-2.2,1.3-3.3c0.5-1,1-1.9,1.6-2.8c0.4-0.6,0.7-1.2,1.1-1.8
		c0.3-0.5,0.7-1,1.1-1.5c0.2-0.2,0.4-0.4,0.6-0.6c0.1-0.1,0.2-0.2,0.4-0.2c0,0.1,0.1,0.2,0.1,0.3c0,0.2,0,0.4,0,0.6
		c0,2-0.2,3.9-0.5,5.7c0,0.2-0.1,0.3-0.1,0.5c0,0,0,0.1,0,0.1c0,0.1,0,0.2,0,0.4c-0.1,0.7-0.3,1.4-0.5,2c-0.4,1.2-1.1,2.2-1.9,3.2
		c-0.7,0.9-1.5,1.8-2.3,2.6c-0.3,0.3-0.6,0.5-0.9,0.7c0-0.2,0.1-0.3,0.2-0.4c0.2-0.3,0.5-0.6,0.7-0.9c0.5-0.7,0.9-1.3,1.3-2
		c0.9-1.6,1.6-3.3,2.1-5.2c0.2-1,0.4-2,0.5-3.1C50.5,32.7,50.5,32.5,50.4,32.4z M19.1,77.3c-0.1-0.1-0.1-0.1,0-0.2
		c0.5-1.3,1-2.5,1.6-3.7c0.5-0.9,0.9-1.8,1.5-2.7c0.3-0.5,0.6-1,0.9-1.5c0.4-0.6,0.8-1.1,1.1-1.6c0.5-0.7,0.9-1.3,1.4-2
		c0.2-0.3,0.5-0.6,0.7-0.9c0.6-0.8,1.1-1.5,1.8-2.1c0.7-0.6,1.3-1.2,2-1.9c0.5-0.5,1.1-1,1.6-1.6c0.8-0.9,1.6-1.9,2.4-2.8
		c0.6-0.6,1.1-1.3,1.7-1.9c0.1-0.1,0.2-0.2,0.2-0.2c0,0.1,0,0.2-0.1,0.3c-0.3,0.5-0.6,1-0.8,1.6c-0.3,0.6-0.5,1.2-0.8,1.8
		c-0.2,0.5-0.3,1-0.5,1.4c-0.3,0.8-0.6,1.5-1,2.3c-0.2,0.5-0.6,1.1-0.8,1.6c-0.5,1.2-0.9,2.4-1.5,3.6c-0.2,0.4-0.4,0.9-0.6,1.3
		c-0.3,0.6-0.6,1.2-1,1.7c-0.1,0.3-0.3,0.6-0.4,0.8c0-0.2,0-0.3,0-0.5c0.3-1.3,0.5-2.6,0.5-4c0-0.3,0-0.6,0-0.9
		c0-0.1-0.1-0.3-0.1-0.4c0-0.1-0.1-0.2-0.2-0.2c-0.1,0-0.2,0-0.3,0c-0.1,0-0.2,0.1-0.3,0.2c-0.5,0.3-1,0.7-1.4,1.1
		c-0.2,0.2-0.5,0.5-0.8,0.7c-1,0.8-1.8,1.8-2.3,2.9c-0.3,0.6-0.6,1.2-0.9,1.9c-0.3,0.6-0.6,1.3-0.9,1.9c-0.3,0.6-0.7,1.1-1,1.7
		c-0.4,0.7-0.8,1.3-1.3,1.9C19.3,77.1,19.2,77.2,19.1,77.3z M32.8,67C32.8,67,32.8,67,32.8,67c0-0.1,0.1-0.2,0.1-0.2
		c0.2-0.1,0.4-0.3,0.7-0.5c0.8-0.5,1.6-1,2.4-1.5c1.2-0.8,2.4-1.6,3.5-2.6c0.8-0.7,1.5-1.4,2.1-2.1c0.5-0.7,1-1.4,1.4-2.1
		c0,0,0-0.1,0-0.2c-0.2,0.3-0.5,0.6-0.7,0.8c-0.2,0.3-0.4,0.5-0.7,0.8c-0.2,0.2-0.5,0.5-0.7,0.7c-0.2,0.2-0.5,0.5-0.7,0.7
		s-0.5,0.5-0.8,0.7c-0.3,0.2-0.5,0.5-0.8,0.7c-0.3,0.2-0.5,0.4-0.8,0.6c-0.3,0.2-0.5,0.4-0.8,0.6c-0.3,0.2-0.6,0.4-0.9,0.6
		c-0.3,0.2-0.6,0.4-0.9,0.6c-0.3,0.2-0.5,0.4-0.9,0.5c0-0.1,0.1-0.1,0.1-0.1c0.3-0.4,0.6-0.8,0.9-1.1c0.6-0.6,1.1-1.2,1.6-1.8
		c0.7-0.9,1.5-1.6,2.4-2.4c0.4-0.3,0.8-0.6,1.1-1c0.5-0.4,0.9-0.8,1.4-1.1c0.8-0.6,1.6-1.2,2.5-1.7c0.5-0.3,1-0.6,1.5-0.7
		c0.2-0.1,0.4-0.1,0.6-0.1c0,0,0.1,0,0.2,0.1c0,0.3,0,0.5-0.1,0.7c-0.2,0.5-0.5,1-0.8,1.5c-0.6,1-1.4,2-2.2,3
		c-0.7,0.9-1.5,1.8-2.3,2.6c-0.5,0.5-0.9,0.9-1.5,1.2c-1.3,0.8-2.7,1.5-4.3,1.9c-0.8,0.2-1.6,0.5-2.3,0.9c-0.1,0.1-0.3,0.2-0.4,0.2
		C32.9,67,32.9,67,32.8,67z M39.3,52.6c0.2-0.2,0.4-0.3,0.6-0.4c1-0.5,2-0.8,3.2-0.8c0.8,0,1.6-0.1,2.3-0.2c2.5-0.3,4.9-0.8,7.1-1.6
		c0.3-0.1,0.5-0.2,0.8-0.4c0,0,0.1-0.1,0.1-0.1c-0.1,0-0.2,0-0.2,0c-0.4,0.1-0.8,0.2-1.2,0.3c-1.8,0.4-3.6,0.7-5.5,1
		c-0.6,0.1-1.2,0.1-1.8,0.2c-0.7,0.1-1.3,0.1-2,0.2c-1.4,0.1-2.5,0.5-3.6,1.2c-0.1,0-0.1,0.1-0.2,0.1s-0.1,0.1-0.2,0.1
		c0-0.2,0.1-0.4,0.3-0.5c0.6-0.5,1.1-1,1.9-1.3c1.3-0.6,2.7-1.1,4.2-1.5c1.3-0.3,2.7-0.5,4.1-0.7c0.9-0.1,1.9-0.1,2.9-0.1
		c0.7,0,1.4,0,2.1,0.1c0.5,0,1,0.1,1.5,0.1c0.1,0,0.1,0,0.2,0.1c0,0.1,0,0.1-0.1,0.1c-0.4,0.3-0.7,0.6-1.1,0.9
		c-0.8,0.5-1.6,1-2.5,1.4c-1,0.4-2.1,0.7-3.3,1c-1.2,0.3-2.4,0.4-3.7,0.3c-1.3,0-2.5,0-3.8,0.1c-0.6,0-1.3,0.2-1.9,0.4
		C39.5,52.5,39.4,52.5,39.3,52.6z M38.5,51.7c0,0.1-0.1,0.2-0.1,0.3c-0.4,1-0.9,2-1.4,3c-0.4,1-0.8,2-1.3,2.9
		c-0.6,1.2-1.2,2.4-1.7,3.6c-0.7,1.7-1.4,3.5-2.1,5.2c-0.6,1.4-1.3,2.8-2.1,4.1c-0.2,0.3-0.3,0.7-0.7,0.9c0.1,0.2,0,0.4-0.1,0.5
		c-0.6,1.1-1.2,2.1-1.8,3.2c-0.3,0.6-0.7,1.1-1.1,1.7c-0.3,0.4-0.5,0.8-0.8,1.2c-0.5,0.8-1.1,1.6-1.6,2.4c-0.2,0.3-0.4,0.6-0.6,0.8
		c-0.5,0.6-0.9,1.4-1.5,2c0,0-0.1,0.1-0.1,0.1c-0.2,0.3-0.4,0.6-0.6,0.8c-1.3,1.4-2.6,2.8-3.8,4.2c-0.2,0.2-0.4,0.5-0.6,0.7
		c-0.2,0.2-0.4,0.5-0.6,0.7c0-0.1,0-0.2,0-0.2c0.1-0.7,0.2-1.5,0.3-2.2c0-0.1,0.1-0.2,0.1-0.2c0.5-0.4,1.1-0.8,1.6-1.2
		c0.3-0.2,0.6-0.4,0.8-0.7c0.7-0.7,1.3-1.4,2-2.1c0.6-0.7,1.3-1.4,1.9-2.2c0.5-0.7,1-1.4,1.4-2.1c0.2-0.3,0.4-0.5,0.6-0.8
		c0.2-0.2,0.4-0.4,0.4-0.7c0-0.1,0.1-0.1,0.1-0.1c0.5-0.7,0.9-1.4,1.4-2.1c0.4-0.6,0.7-1.1,1.1-1.7c0.5-0.8,0.9-1.5,1.3-2.3
		c0.1-0.3,0.3-0.5,0.4-0.8c0.3-0.6,0.7-1.2,1-1.8c0.6-1.2,1.2-2.5,1.7-3.8c0.3-0.7,0.5-1.5,0.9-2.1c0.4-0.6,0.7-1.3,1-2
		c0.5-1.2,0.9-2.5,1.5-3.8c0.3-0.7,0.6-1.4,1-2c0.1-0.1,0.1-0.2,0.2-0.3c0.1-0.2,0.1-0.4,0.1-0.6c0-0.1-0.1-0.2-0.3-0.2
		C37,53,37.8,52.3,38.5,51.7z M40.4,39c-0.1-0.6-0.3-1.2-0.6-1.8c-0.3-0.7-0.7-1.4-1.1-2.1c-0.4-0.6-0.7-1.2-0.9-1.8
		c-0.2-0.5-0.4-0.9-0.5-1.4c-0.3-1-0.6-1.9-0.9-2.8c-0.5-1.5-0.7-3-0.7-4.4c0-0.1,0-0.2,0-0.3c0.1,0.1,0.2,0.1,0.2,0.2
		c0.2,0.3,0.5,0.5,0.7,0.8c1.2,1.6,2.2,3.3,3.2,5c0.3,0.6,0.6,1.2,0.9,1.9c0.3,0.7,0.5,1.4,0.5,2s0.1,1.3,0.1,2
		c0,0.3-0.1,0.6-0.1,0.9c0,0,0,0.1-0.1,0.2c0-0.2,0-0.3-0.1-0.4c-0.1-0.8-0.2-1.5-0.5-2.3c-0.6-1.8-1.5-3.6-2.5-5.4
		c-0.2-0.4-0.5-0.8-0.8-1.2c0,0-0.1-0.1-0.2-0.1c0.1,0.1,0.1,0.2,0.1,0.3c0.2,0.3,0.4,0.7,0.5,1c0.6,1.3,1.2,2.6,1.7,4
		c0.3,0.7,0.5,1.4,0.8,2.1c0.3,1.1,0.5,2.2,0.4,3.2C40.5,38.5,40.5,38.8,40.4,39z M23.1,79.4c-0.1,0.3-0.3,0.5-0.5,0.8
		c-0.6,0.8-1.2,1.6-1.9,2.4c-0.1,0-0.1,0.1-0.1,0.2c-1.3,1.4-2.6,2.8-4.1,4c0,0-0.1,0-0.1,0c0-0.1,0-0.2,0-0.2
		c0.2-0.6,0.3-1.3,0.5-2c0.2-1,0.6-2,0.8-3c0.1-0.5,0.4-0.8,0.8-1c0.7-0.2,1.5-0.5,2.2-0.6C21.5,79.9,22.4,79.8,23.1,79.4z
		 M47.5,22.4c0.1,0.2,0.1,0.3,0.1,0.4c-0.1,0.1-0.1,0.2-0.2,0.3c-0.5,0.7-0.9,1.3-1.3,2.1c-0.4,0.9-0.8,1.7-1.2,2.5
		c-0.4,0.8-0.7,1.7-0.8,2.6c-0.1,0.4-0.2,0.8-0.2,1.1c-0.2,1.2-0.6,2.4-0.9,3.6c-0.3,1.3-0.7,2.5-1,3.8c-0.1,0.4-0.2,0.9-0.4,1.3
		c-0.1,0.2-0.2,0.3-0.1,0.6c0,0,0,0.1,0,0.1c0,0.1-0.1,0.3-0.1,0.4c-0.3,0.9-0.7,1.8-0.9,2.8c0,0,0,0.1,0,0.1
		c-0.3,0.9-0.6,1.7-1,2.6c-0.2,0.5-0.4,1.1-0.6,1.7c-0.1,0.4-0.2,0.8-0.4,1.2c-0.1,0.5-0.4,0.7-0.7,0.9c-0.1,0.1-0.2,0.1-0.3,0.2
		c0,0-0.1,0.1-0.1,0c0.1-0.3,0.2-0.7,0.3-1c0.2-0.5,0.4-1,0.5-1.5c0.3-1,0.6-2,0.9-3c0.3-0.9,0.6-1.9,0.9-2.9
		c0.1-0.4,0.2-0.8,0.4-1.2c0.3-1,0.8-1.9,1.1-2.8c0.3-0.8,0.7-1.5,1-2.2c0,0,0-0.1,0-0.1c-0.2,0-0.2,0.2-0.4,0.3c0,0,0-0.1,0-0.1
		c0.3-1,0.6-2.1,0.9-3.1c0.2-0.7,0.5-1.4,0.8-2.1c0.1-0.3,0.2-0.6,0.3-1c0.1-0.5,0.2-0.9,0.3-1.4c0-0.2,0.1-0.4,0.2-0.5
		c0.2-0.2,0.2-0.4,0.3-0.6c0-0.2,0.1-0.3,0.2-0.5c0.2-0.4,0.4-0.8,0.6-1.2c0.2-0.4,0.4-0.8,0.6-1.2c0.2-0.4,0.4-0.8,0.6-1.2
		C47,23,47.2,22.7,47.5,22.4z M13.3,90C13.3,90.1,13.4,90.1,13.3,90c0,0.4,0,0.8,0,1.2c0,0.6,0.1,0.5-0.5,0.7
		c-0.9,0.4-1.9,0.8-2.6,1.4c-0.6,0.4-1.1,0.8-1.6,1.3c-0.1,0.1-0.2,0.1-0.3,0.2c-0.2,0.1-0.5,0.2-0.8,0c-0.3-0.1-0.6-0.3-0.7-0.6
		c-0.1-0.2-0.2-0.5-0.3-0.8c-0.1-0.1,0-0.3,0.1-0.3c0.2,0.1,0.5,0.3,0.6,0.6c0,0.1,0.1,0.2,0.1,0.3c0.1,0.1,0.1,0.2,0.3,0.2
		c0.1,0,0.2,0,0.3,0C7.6,94,7.6,94,7.6,93.8c0-0.3-0.2-0.5-0.5-0.8c-0.1-0.1-0.2-0.2-0.3-0.3c0.1-0.2,0.4-0.2,0.6-0.3
		c0.2-0.1,0.4-0.1,0.7-0.1c0.2,0,0.3,0,0.4,0c0.3-0.1,0.7-0.2,1-0.3c0.6-0.3,1.3-0.7,1.9-1c0.3-0.1,0.5-0.3,0.8-0.4
		C12.5,90.4,13,90.3,13.3,90z M44.1,40.6c-0.4,0.4-0.6,0.8-0.9,1.1c-0.4,0.3-0.7,0.7-1,1c-0.4,0.3-0.7,0.6-1.1,0.9
		c0-0.2,0.1-0.3,0.1-0.5c0.3-0.9,0.7-1.8,0.9-2.8c0-0.2,0.2-0.4,0.3-0.5c0.5-0.4,1-0.8,1.5-1.2c0.3-0.2,0.5-0.4,0.8-0.6
		c0.2-0.1,0.3-0.2,0.6-0.3c0,0.1-0.1,0.2-0.1,0.3C45,39,44.7,40,44.5,40.9c-0.1,0.6-0.3,1.1-0.5,1.7c0,0.2-0.1,0.3-0.3,0.4
		c-0.7,0.5-1.4,0.9-2.2,1.2c0,0-0.1,0.1-0.1,0c0.2-0.2,0.4-0.4,0.5-0.6c0.4-0.4,0.8-0.7,1.1-1.1c0.4-0.5,0.8-1,1-1.6
		C44.2,40.8,44.2,40.7,44.1,40.6C44.2,40.6,44.2,40.6,44.1,40.6z M43.5,45.9c-0.1,0.3-0.2,0.5-0.4,0.7c-0.4,0.2-0.8,0.5-1.1,0.7
		c-0.5,0.3-1,0.6-1.5,0.9c-0.6,0.4-1.1,0.9-1.7,1.3c0,0,0,0-0.1,0c0,0,0-0.1,0-0.1c0.3-0.4,0.5-0.9,0.7-1.4c0.1-0.1,0.1-0.3,0.2-0.5
		c0.3-0.8,0.6-1.6,1-2.4c0.6,0,1-0.3,1.5-0.5s1-0.5,1.4-0.8c0,0.1,0,0.2,0,0.2c-0.1,0.3-0.1,0.5-0.2,0.8c-0.1,0.5-0.1,0.9-0.3,1.3
		c0,0,0,0.1,0,0.2C43.2,46.2,43.4,46.1,43.5,45.9z M74.2,32.3c-0.3-0.1-0.6-0.2-0.8-0.3c0.3-0.2,0.7-0.3,1-0.5
		c0.3-0.2,0.7-0.3,1-0.5s0.7-0.3,1.1-0.4c0.4-0.1,0.7-0.2,1.1-0.4c-0.2,0-0.3,0-0.4-0.1c0-0.2,0-0.4,0.1-0.6
		c0.1-0.6,0.2-1.1,0.5-1.6c0.1-0.2,0.2-0.3,0.4-0.5c0,0,0.1,0,0.2,0c0,0,0.1,0.1,0.1,0.2c0,0.2,0,0.5-0.1,0.7
		c-0.1,0.2-0.2,0.3-0.2,0.5c-0.1,0.4-0.4,0.7-0.7,1c0,0-0.1,0.1-0.1,0.1c0.1,0,0.1,0.1,0.1,0.1c0.1,0,0.2-0.1,0.3-0.1
		c0.3-0.2,0.5-0.4,0.7-0.8c0.2-0.4,0.5-0.7,0.9-1c0.3-0.3,0.7-0.5,1.1-0.6c0,0,0.1,0,0.2,0c-0.1,0.2-0.1,0.3-0.2,0.4
		c-0.3,0.5-0.7,0.9-1.2,1.1c-0.1,0-0.1,0.1-0.1,0.1c0.1,0.1,0.2,0.2,0.2,0.3c-0.5,0.3-0.9,0.5-1.4,0.8c0,0.1,0,0.2,0,0.3
		c0,0.2-0.1,0.4-0.4,0.2c-0.1,0-0.2-0.1-0.3-0.1c0,0.1,0.1,0.2,0.1,0.3c-0.2,0.1-0.3,0.1-0.5,0.2c-0.4,0.1-0.7,0.2-1.1,0.4
		c-0.3,0.1-0.6,0.3-0.9,0.4C74.8,32.1,74.5,32.2,74.2,32.3z M63.2,36.4c0-0.2,0.1-0.3,0.1-0.4c0.1-0.3,0.1-0.6,0-1
		c0-0.2,0-0.4,0-0.6c0.2-0.6,0.4-1.2,0.7-1.8c0.1-0.1,0.1-0.2,0.2-0.2c0,0,0.1,0,0.2-0.1c0,0.1,0.1,0.1,0.1,0.1
		c0.1,0.2,0.1,0.4,0,0.5c-0.1,0.3-0.2,0.6-0.1,1.1c0,0.1,0,0.2,0,0.2c-0.1,0.2-0.2,0.4-0.3,0.5c-0.1,0-0.2-0.1-0.2,0
		c0,0,0,0.1,0,0.2c0,0.1,0.1,0.2,0.2,0.2c0,0.1,0,0.2,0,0.3c0,0.1,0,0.1,0.1,0.1c0,0,0.1-0.1,0.1-0.1c0.5-0.5,1-1,1.5-1.3
		c0.2-0.1,0.5-0.2,0.7-0.3c0.1,0,0.2-0.1,0.4,0c0.1,0.3,0,0.5-0.1,0.7c-0.2,0.5-0.6,0.9-1,1.2c-0.1,0.1-0.1,0.1-0.3,0
		c-0.4-0.1-0.8-0.1-1.1,0c-0.4,0.1-0.8,0.3-1.2,0.5C63.4,36.3,63.3,36.3,63.2,36.4z M64.1,38.5c-0.2,0-0.4-0.1-0.5-0.1
		s-0.3,0-0.5-0.1c0.5-0.2,0.9-0.5,1.4-0.6c0.1,0,0.2,0,0.4,0c0.6,0.1,1.3,0.1,2,0.2c0.5,0.1,1.1,0.2,1.7,0.5
		c0.2,0.1,0.5,0.2,0.7,0.4c0.2,0.1,0.2,0.2,0,0.3c-0.3,0.1-0.6,0.1-1,0.1c-0.2-0.2-0.4-0.5-0.7-0.5c0,0.2,0.3,0.3,0.3,0.5
		c-0.8,0-2.8-0.4-3.5-0.8c0-0.1-0.1-0.2-0.1-0.2C63.9,38.1,64,38.3,64.1,38.5z M53.7,9.5c0.1,0.2,0,0.4,0,0.6
		c-0.2,0.5-0.4,1-0.6,1.6c0,0.1-0.1,0.2-0.1,0.3c0,0.1-0.1,0.2-0.3,0.1c0-0.1,0-0.2,0-0.3c-0.1-0.3-0.1-0.6-0.2-1
		c-0.1-0.3-0.2-0.5-0.4-0.8c-0.1-0.1-0.2-0.2-0.2-0.3c-0.1-0.4-0.2-0.7-0.2-1c0-0.2,0-0.4,0.2-0.5c0.2,0.1,0.2,0.3,0.4,0.3
		c0,0,0.1,0.1,0.1,0.2c0.1,0.1,0,0.2,0.1,0.3c0.3,0.1,0.1-0.2,0.3-0.3c0.1,0.3,0.2,0.5,0.3,0.8c0,0.1,0.1,0.3,0.2,0.4
		c0,0,0.1,0.1,0.1,0.1s0.1-0.1,0.1-0.1c0-0.1,0-0.3-0.1-0.4C53.1,9,53,8.5,52.8,8c-0.1-0.2-0.1-0.4,0-0.6c0.2,0.1,0.3,0.2,0.3,0.4
		c0,0.1,0.1,0.3,0.2,0.4c0.1,0.2,0.2,0.4,0.1,0.5c0,0.2,0,0.4,0,0.5C53.6,9.3,53.6,9.4,53.7,9.5z M71.1,33c-0.3-0.1-0.5,0-0.7-0.1
		c0.1-0.1,0.3-0.3,0.4-0.4c0.1,0,0.1,0.1,0.2,0.1c0,0,0,0,0.1,0c0.1-0.5,0.3-1,0.6-1.4c0.2-0.3,0.3-0.6,0.6-0.8c0,0,0.1-0.1,0.2,0
		c0.1,0.2,0,0.4,0,0.6c-0.1,0.5-0.4,0.9-0.7,1.3c-0.1,0.1-0.2,0.1-0.3,0.2c-0.1,0-0.2,0.1-0.2,0.2c0,0.1,0.1,0.2,0.1,0.3
		c0,0.1-0.2,0.2,0,0.5c0.1-0.1,0.3-0.1,0.4-0.2c0.4-0.3,0.8-0.5,1.3-0.7c0.2-0.1,0.4-0.1,0.7-0.1c0.1,0.1,0.1,0.2,0.1,0.2
		c-0.1,0.1-0.1,0.1-0.2,0.2c-0.4,0.2-0.8,0.5-1.2,0.6c-0.1,0-0.3,0.1-0.4,0.1c-0.1,0-0.2-0.1-0.3-0.1c-0.1,0.1-0.2,0.1-0.4,0.2
		c-0.3,0-0.6,0.1-1,0.2c-0.5,0.1-0.9,0.2-1.4,0.4c0-0.1-0.1-0.1-0.1-0.2c-0.1,0-0.2,0.1-0.3,0.1c-0.1,0-0.1,0.1-0.3,0
		c0-0.1,0-0.2,0-0.3c0.5-0.1,1.1-0.2,1.5-0.3C70.8,33.3,70.9,33.2,71.1,33z M48,23c0.2,0.1,0.4,0.2,0.6,0.3c0.9,0.4,1.7,0.5,2.5,0.5
		c0.2,0,0.3,0,0.5-0.1c0.3-0.1,0.6,0,0.9,0.1c0.2,0.1,0.4,0.3,0.6,0.5c0.2,0.3,0.1,0.4-0.1,0.4c-0.3,0.1-0.7,0-1,0s-0.7-0.2-1.1-0.3
		c-0.1,0-0.2,0-0.3,0c0.1,0.1,0.1,0.2,0.2,0.2c0,0-0.1,0-0.1,0.1c0.1,0,0.1,0.1,0.2,0.1c0.1,0,0.1,0.1,0.2,0.1
		c0.1,0.1,0.1,0.1,0.2,0.2s0,0.2-0.2,0.2c-0.2,0-0.3,0-0.5-0.2c0-0.4-0.3-0.8-0.6-1c-0.5-0.5-1.1-0.8-1.8-0.9c0,0-0.1,0-0.1-0.1
		C47.9,23.1,47.9,23.1,48,23z M49.8,15.7c0.1,0,0.2,0,0.3,0c-0.1-0.2-0.2-0.4-0.3-0.6c-0.2-0.4-0.4-0.7-0.6-1.1s-0.3-0.7-0.5-1.1
		c0-0.1-0.1-0.2,0-0.3c0.4,0.2,0.7,0.5,0.9,0.9c0.3,0.4,0.5,0.8,0.5,1.2c0,0.1,0.1,0.3,0.2,0.5c0,0.1,0.1,0.1,0.2,0.1
		c0.1-0.1,0-0.2,0-0.4c-0.1-0.5-0.1-1-0.2-1.4c0-0.3,0-0.6,0-0.9c0-0.1,0-0.1,0.1-0.2c0.4,0.7,0.5,2.1,0.3,3c-0.1,0-0.2,0-0.3,0.1
		c-0.2,0.2-0.3,0.5-0.4,0.7c0,0,0,0.1-0.1,0.1C49.9,16.1,49.8,15.9,49.8,15.7z M49.1,17.9c0-0.2,0-0.3-0.1-0.5
		c-0.1-0.5-0.2-0.9-0.4-1.4c-0.1-0.2-0.2-0.5-0.4-0.7C48.1,15.3,48,15.1,48,15c0-0.2,0-0.4,0-0.6c0-0.1,0-0.3,0.1-0.4
		c0.1-0.2,0.2-0.2,0.4,0c0.1,0.1,0.2,0.3,0.3,0.4c0.4,0.6,0.6,1.3,0.8,2c0,0.3,0,0.4-0.2,0.6c0.1,0.1,0.2,0.1,0.4,0.2
		c0,0.1,0,0.1-0.1,0.2C49.5,17.6,49.3,17.7,49.1,17.9z M55.1,7.2c0.1,0.5,0.1,1.1-0.1,1.7c-0.2,0.6-0.4,1.1-0.9,1.4
		c0.1,0.1,0.2,0.3,0.1,0.4c-0.1,0.5-0.3,1-0.5,1.5c0,0,0,0-0.1,0c-0.1-0.1-0.2-0.1-0.3-0.2c0-0.1,0.1-0.2,0.1-0.4
		c0.2-0.5,0.4-1.1,0.5-1.7c0.1-0.4,0.1-0.8,0.2-1.2c0.1-0.4,0.2-0.7,0.3-1C54.6,7.4,54.8,7.3,55.1,7.2z M61.5,37.6
		c0-0.4,0-0.7,0.1-0.9c0.1-0.3,0.2-0.7,0.1-1.1c-0.1-0.5,0.1-0.8,0.3-1c0.1-0.1,0.2-0.2,0.3-0.2c0.1,0,0.2,0,0.3,0.1
		c0.1,0.1,0.1,0.3,0.1,0.4c0.1,0.5,0,1-0.1,1.5c-0.1,0.2-0.2,0.5-0.4,0.7c-0.2,0.2-0.4,0.4-0.5,0.7C61.7,37.7,61.6,37.7,61.5,37.6z
		 M51.3,16.9c0.3,0,0.5,0.1,0.8,0.1c0.3,0,0.6,0.1,0.9,0.3c0.3,0.1,0.5,0.3,0.8,0.5c0.3,0.2,0.5,0.4,0.7,0.6c0.1,0,0.2,0.2,0.2,0.3
		c0.1,0.1,0.1,0.3,0,0.3c-0.1,0.1-0.3,0.1-0.5,0.1c-0.2-0.1-0.4-0.1-0.6-0.2c-0.4-0.2-0.7-0.4-1-0.6c-0.5-0.3-0.9-0.6-1.3-1
		C51.3,17,51.3,17,51.3,16.9z M66.1,42.2c-0.2,0-0.3-0.1-0.4-0.1c-0.9-0.3-1.7-0.7-2.5-1.3c-0.3-0.2-0.5-0.4-0.7-0.6
		c-0.1-0.1-0.2-0.2-0.2-0.4c0.1,0,0.2-0.1,0.4-0.2c0.1,0.1,0.2,0.1,0.3,0.1c0.5,0.3,1,0.6,1.6,0.8c0.3,0.1,0.6,0.4,0.9,0.6
		c0.1,0.1,0.2,0.3,0.4,0.4C65.8,41.8,65.9,42,66.1,42.2z M53.3,35.2c0,0.1,0,0.1,0,0.2c-0.2,0.5-0.5,0.9-0.8,1.3
		c-0.4,0.5-0.7,0.9-1.2,1.3c0,0,0,0-0.1,0c0.1-0.4,0.2-0.8,0.3-1.3c0.1-0.4,0.2-0.9,0.3-1.3C52.5,35,52.9,35,53.3,35.2z M54.2,13.5
		c0.3-0.1,0.6-0.2,1-0.2c0.3,0,0.6,0.1,0.8,0.5c0.2,0.3,0.3,0.6,0.2,0.9c-0.1,0.2-0.2,0.4-0.4,0.5c-0.1,0.1-0.2,0.1-0.4,0.2
		c0,0,0.1,0.1,0.1,0.1c-0.3,0-0.5,0.1-0.8,0c0.1-0.1,0.1-0.2,0.2-0.4C55.1,14.6,54.9,14,54.2,13.5C54.2,13.6,54.2,13.6,54.2,13.5z
		 M61.3,40.1c0.2,0,0.3,0,0.4,0.1c0.1,0.1,0.2,0.3,0.4,0.4c0.5,0.6,0.7,1.2,0.7,1.9c0,0.2-0.1,0.4-0.1,0.5c-0.1,0.2-0.4,0.2-0.5-0.1
		c-0.1-0.2-0.2-0.3-0.3-0.5C61.6,41.9,61.3,40.6,61.3,40.1z M47.9,15.9c0.2,0.1,0.3,0.2,0.3,0.2c0.4,0.9,0.5,2.4,0.4,3.3
		c-0.3,0.1-0.5,0.3-0.7,0.5c0,0-0.1,0.1-0.2,0c0-0.2-0.1-0.5-0.1-0.7c0.1,0,0.1,0.1,0.2,0.1c0-0.2,0-0.4,0-0.6
		c0-0.7-0.1-1.4-0.1-2.1C47.9,16.4,47.9,16.2,47.9,15.9z M52.6,15.4c0.1-0.4,0.1-0.8,0.2-1.2c0-0.1,0-0.1,0.1-0.2
		c0.3-0.2,0.7-0.2,1.2-0.1c0.2,0,0.3,0.2,0.4,0.3c0.2,0.4,0.1,0.8-0.2,1c-0.2,0.1-0.4,0.2-0.6,0.1C53.3,15.3,53,15.4,52.6,15.4
		C52.7,15.4,52.6,15.4,52.6,15.4z M46.1,15.3c0.3,0.1,0.5,0.4,0.6,0.6c0.5,0.7,0.8,1.5,0.7,2.2c-0.1,0-0.2-0.1-0.2,0
		c0,0.1,0.2,0.2,0.2,0.3c0.1,0.1,0.1,0.2,0.1,0.4c-0.2-0.4-0.5-0.7-0.9-0.8c-0.2-0.6-0.3-1.2-0.5-1.8c0-0.1-0.1-0.3-0.1-0.4
		C46,15.6,46,15.4,46.1,15.3z M54,12.8c0,0,0-0.1,0-0.1c0.1-0.3,0.3-0.6,0.4-1c0-0.1,0.1-0.1,0.2-0.2c0.5-0.1,0.9-0.1,1.4,0
		c0.1,0,0.2,0,0.3,0.1c0.1,0,0.2,0.2,0.1,0.3c0,0.1-0.1,0.1-0.1,0.2c-0.1,0.2-0.4,0.3-0.6,0.4c-0.5,0.1-1,0.3-1.5,0.4
		C54.1,12.8,54.1,12.8,54,12.8z M82.5,30.1c-0.4,0.3-0.8,0.4-1.3,0.4c0,0-0.1,0-0.2,0c-0.1-0.2-0.2-0.1-0.3,0
		c-0.1,0-0.1,0.1-0.2,0.1c-0.2-0.1-0.5-0.1-0.8-0.2c0.1-0.1,0.1-0.1,0.2-0.1c0.2-0.1,0.5-0.2,0.8-0.3c0.3-0.1,0.5-0.3,0.5-0.7
		c0.3,0,0.5,0,0.8,0c0.2,0,0.4,0.1,0.6,0.1c0.1,0,0.2,0.1,0.2,0.2c-0.2,0.1-0.4,0.1-0.6,0.4C82.3,30,82.4,30,82.5,30.1z M49.5,21.1
		c0-0.2,0-0.4,0.1-0.5c0-0.2,0.2-0.3,0.4-0.2c0.1,0,0.2,0,0.3-0.1c0.1-0.1,0.1-0.1,0.2-0.2c0.4-0.3,0.8-0.5,1.5-0.3c0,0,0,0.1,0,0.1
		c-0.1,0.6-0.5,1-1.1,1C50.4,20.9,50,21,49.5,21.1z M51.2,18.4c0.1-0.1,0.1-0.1,0.1-0.1c0.1-0.1,0.2-0.1,0.4,0
		c0.2,0.1,0.4,0.2,0.5,0.3c0.4,0.3,0.4,0.6,0.1,0.8c-0.2,0.1-0.4,0.1-0.6,0.1c-0.3,0-0.6,0-0.9,0.1c-0.1,0-0.2,0.1-0.3,0.1
		c0.1-0.1,0.1-0.2,0.1-0.3c0.2-0.4,0.3-0.8,0.1-1.3c0,0,0-0.1,0-0.2c0-0.1,0.1-0.2,0.1-0.2c0.1-0.1,0.1-0.2,0.2-0.3
		c0.1,0.1,0.1,0.1,0.2,0.2c0.1,0.1,0.2,0.1,0.1,0.2C51.1,17.9,51.1,18,51.2,18.4z M80.1,29.1c0.4-0.3,0.7-0.6,0.9-1
		c0-0.1,0.1-0.2,0.2-0.2c0.4-0.2,0.8-0.3,1.2-0.3c0.1,0,0.2,0,0.3,0.1c0.2,0.1,0.3,0.3,0.2,0.4c-0.1,0.1-0.1,0.2-0.1,0.4
		c0,0,0,0.1-0.1,0.1c-0.1,0.1-0.3,0.2-0.6,0.2c-0.7-0.1-1.3,0-1.8,0.3C80.3,29.1,80.2,29.1,80.1,29.1z M55.2,9.5
		c0.1-0.3,0.2-0.5,0.2-0.6c0-0.4,0.2-0.7,0.5-1c0.3-0.2,0.5-0.5,0.7-0.7c0.1,0,0.1-0.1,0.2-0.1c0,0,0,0,0,0c0,0,0,0.1,0,0.1
		c0,0.7-0.2,1.3-0.6,1.8c-0.1,0.1-0.2,0.2-0.4,0.2c0,0-0.1,0-0.1,0c0,0.1-0.1,0.1-0.2,0.1C55.5,9.5,55.4,9.5,55.2,9.5z M64.8,34.2
		c0,0,0-0.1,0-0.1c0-0.2,0.1-0.3,0.1-0.5c0-0.3,0.1-0.6,0.3-0.9c0.2-0.3,0.4-0.5,0.6-0.8c0.1-0.1,0.2-0.1,0.3-0.1
		c0,0.1,0.1,0.1,0.1,0.1c0.1,0.5,0.1,1,0,1.4c0,0.1-0.1,0.1-0.1,0.2C65.6,33.7,65.2,34,64.8,34.2z M69,35.9C69,35.9,69,35.9,69,35.9
		c0.6,0,1.1,0.1,1.5,0.1c0.5,0.1,0.9,0.2,1.4,0.5c0.2,0.1,0.4,0.3,0.6,0.4c0.1,0,0.1,0.1,0.1,0.2C71.9,37.3,69.9,36.6,69,35.9z
		 M50.3,17.9c0.2,0.3,0.2,0.5,0.2,0.7c0,0.1-0.1,0.3-0.1,0.4c-0.2,0.3-0.4,0.6-0.6,0.9c0,0.1-0.1,0.1-0.2,0.1
		c-0.2-0.2-0.3-0.3-0.5-0.5c0-0.1,0-0.3,0.1-0.5c0-0.2,0.1-0.3,0.2-0.4c0.1-0.2,0.2-0.4,0.3-0.6C49.8,17.8,50,17.8,50.3,17.9z
		 M46.4,25.7c0.1-0.1,0.1-0.2,0.1-0.3c0.1-0.2,0.2-0.3,0.5-0.4c0.5-0.1,1-0.2,1.5-0.1c0.1,0,0.1,0.1,0.2,0.1c0,0.1,0,0.1,0,0.1
		c-0.3,0.5-0.8,0.7-1.4,0.9C47,26,46.7,26,46.4,25.7z M53.8,8.3c-0.1-0.2-0.2-0.5-0.3-0.7c0-0.1,0-0.2,0-0.2c0-0.5,0.1-1,0.3-1.4
		c0.1-0.3,0.2-0.5,0.6-0.5c0.2,0.3,0.2,0.5,0.2,0.7c0,0.1-0.1,0.2-0.2,0.2c0,0,0,0,0,0.1c0.1,0.1,0.2,0.1,0.3,0.2
		c-0.2,0.2-0.4,0.5-0.5,0.7C54,7.7,53.9,8,53.8,8.3z M69.1,31.6c-0.1-0.4-0.2-0.7-0.3-1c0,0,0-0.1,0-0.1c0-0.6,0-1.1,0.2-1.5
		c0-0.1,0.1-0.1,0.2-0.1c0.1,0,0.2,0.1,0.2,0.2c0.1,0.1,0.1,0.2,0.1,0.3c0,0.4,0,0.8,0.2,1.3c0,0.1,0.1,0.2,0.1,0.3
		C69.5,31.2,69.3,31.4,69.1,31.6z M54.6,10.9c-0.1-0.1-0.1-0.3,0-0.3c0.2-0.2,0.5-0.4,0.8-0.5c0.1-0.1,0.2-0.1,0.4-0.1
		c0.1,0,0.3,0,0.4,0c0.1,0,0.3,0,0.4,0.1c0.1,0.2,0.3,0.1,0.4,0.2C56.5,10.8,55.5,11.1,54.6,10.9z M74.9,30.8
		c-0.1-0.9-0.1-1.7,0-2.4c0-0.1,0-0.2,0.1-0.3c0.1,0.1,0.2,0.3,0.2,0.4c0.2,0.4,0.2,0.8,0.3,1.3c0,0.2,0.1,0.4,0.2,0.5
		c0.1,0.1,0.1,0.2,0,0.3C75.5,30.6,75.2,30.7,74.9,30.8z M79.2,32.2c0.2,0.2,0.3,0.3,0.4,0.4c-0.1,0-0.1,0-0.2,0
		c-0.4,0-0.8-0.2-1.2-0.4c-0.1,0-0.1-0.1-0.2-0.1c-0.2-0.2-0.4-0.4-0.6-0.7c0.2-0.1,0.3-0.2,0.5-0.3c0.1,0,0.2,0,0.3,0
		c0.2,0.1,0.4,0.2,0.6,0.3c0.2,0.1,0.4,0.3,0.6,0.4c0.1,0,0.1,0.1,0.2,0.2C79.5,32.2,79.4,32.2,79.2,32.2z M56.4,6.3
		c0-0.2,0-0.3,0-0.5c0-0.4-0.1-0.8-0.5-1.1c0,0,0-0.1,0-0.1c0.1-0.4,0.2-0.7,0.5-1c0.1-0.1,0.1-0.1,0.3-0.1c0,0.1,0.1,0.2,0.1,0.2
		c0,0.2,0.1,0.3,0.1,0.5c0,0.6-0.1,1.1-0.2,1.6C56.6,6.1,56.6,6.2,56.4,6.3z M68.7,33.5c0.1-0.3,0.2-0.7,0.3-1c0-0.1,0-0.1,0.1-0.2
		c0.2-0.2,0.4-0.5,0.6-0.7c0,0,0.1-0.1,0.2-0.1c0.2,0.2,0.3,0.3,0.4,0.5c-0.1,0.4-0.3,0.7-0.7,0.9c-0.1,0-0.1,0.1,0,0.2
		c0,0,0,0,0,0.1C69.4,33.4,69,33.5,68.7,33.5z M71.7,35.1c-0.2,0.2-0.2,0.2-0.3,0.2c-0.2,0-0.5,0.1-0.7,0.1c-0.4,0-0.8-0.1-1.3-0.2
		c-0.1,0-0.3-0.1-0.4-0.1c-0.1-0.1-0.3,0-0.4-0.2c-0.1-0.2-0.2,0-0.4-0.1c0,0,0,0-0.1-0.1c0.1-0.1,0.2-0.2,0.4,0
		c0.1,0.1,0.3,0.1,0.4,0c0.1,0,0.2,0,0.2,0c0.2,0.2,0.3,0.1,0.5,0.1c0.2,0,0.4,0,0.5,0c0.2,0,0.4,0,0.7,0
		C71.1,34.8,71.4,34.9,71.7,35.1z M65.5,37c0.2-0.2,0.3-0.5,0.5-0.7c0,0,0.1-0.1,0.2-0.1c0.5,0,1-0.1,1.5-0.1c0.1,0,0.3,0,0.4,0
		c0.1,0,0.1,0.1,0.2,0.1c0,0,0,0.1,0,0.1c-0.1,0.2-0.3,0.2-0.5,0.2c-0.2,0-0.5,0-0.6,0.3c0,0-0.1,0-0.1,0.1c-0.2,0-0.3,0.1-0.5,0.1
		c-0.3,0-0.5,0.1-0.8,0.1C65.7,37.1,65.6,37.1,65.5,37z M54.9,16.1c-1,0.5-2.1,0.6-3.4,0.5c0,0,0.1,0.1,0,0.1c0-0.2,0-0.3,0.2-0.3
		c0.1,0,0.2,0.1,0.4,0.1c0.1-0.1,0.2-0.2,0.3-0.3c0.2-0.3,0.6-0.4,1-0.4c0.5,0,0.9,0.1,1.4,0.2C54.8,16.1,54.8,16.1,54.9,16.1z
		 M47.8,23.3c0.3,0.2,0.6,0.3,0.9,0.5c0.4,0.2,0.7,0.5,1,0.8c0,0,0.1,0.1,0.1,0.1c0,0.1,0,0.2,0,0.4c0,0-0.1,0-0.1,0
		c-0.6-0.1-1.2-0.5-1.8-1c-0.1-0.1-0.2-0.2-0.3-0.4C47.7,23.5,47.7,23.4,47.8,23.3z M55,6.6C55,6.3,55.1,6,55.2,5.7
		c0-0.1,0.1-0.2,0.1-0.2c0.2,0,0.3-0.2,0.4-0.3c0-0.1,0.1-0.1,0.1-0.2C56,5.3,56,5.5,56,5.6c0.1,0.6,0,1.1-0.2,1.5
		c0,0.1-0.1,0.1-0.2,0.1C55.3,6.9,55.3,6.9,55,6.6z M70.8,31.3c-0.2-0.2-0.4-0.4-0.7-0.4c0-0.5,0-1-0.2-1.5c-0.1-0.3,0-0.5,0.3-0.5
		c0.3,0.2,0.4,0.5,0.5,0.8C70.9,30.3,71,30.9,70.8,31.3z M82.1,31.8c-0.5,0-0.9,0-1.3-0.1c-0.2-0.1-0.4-0.1-0.5-0.1
		c-0.5-0.1-1-0.3-1.5-0.5c-0.1,0-0.1-0.1-0.1-0.2c0,0,0.1-0.1,0.2-0.1c0.4,0,0.7,0,1.1,0.1c0.4,0,0.9,0.2,1.3,0.4
		C81.5,31.4,81.8,31.5,82.1,31.8z M51.5,21.7c-0.1,0.4-0.4,0.5-0.7,0.5c-0.6,0-1.1,0-1.7,0c-0.1,0-0.1,0-0.2,0
		c0.1-0.2,0.3-0.4,0.5-0.5s0.5-0.1,0.8-0.1c0.2,0,0.5,0,0.8,0C51.1,21.5,51.3,21.5,51.5,21.7z M83,29c0.2-0.2,0.3-0.5,0.5-0.7
		c0.2,0,0.4,0,0.6,0.1c0.3,0.1,0.4,0.3,0.4,0.6c0,0.2-0.1,0.3-0.2,0.5c-0.1,0.1-0.3,0.3-0.6,0.1c-0.1,0-0.2,0-0.2,0
		C83.2,29.3,83.1,29.1,83,29z M68.2,33.4c-0.1-0.3-0.2-0.5-0.3-0.8c0-0.2,0-0.5,0-0.7c0-0.2,0-0.5,0.1-0.7c0-0.2,0.1-0.4,0.3-0.5
		c0.2,0.2,0.2,0.4,0.2,0.6c0.1,0.5,0.1,1,0,1.4C68.5,32.9,68.4,33.2,68.2,33.4z M76.4,31.9c0.1,0,0.1-0.1,0.2-0.1
		c0.1,0,0.2-0.1,0.3-0.1c0.1,0,0.2,0,0.3,0.1c0.1,0.1,0.3,0.3,0.4,0.5c0.3,0.4,0.6,0.7,0.8,1.1c-0.3,0-0.5-0.1-1-0.4
		C77,32.7,76.6,32.4,76.4,31.9z M49.1,20.2c0.1,0.4,0,0.8-0.2,1c0,0,0,0-0.1,0c-0.3,0.2-0.5,0.5-0.8,0.7c0,0,0,0.1-0.1,0.1
		c0-0.7,0.3-1.6,0.8-2c0.1,0.1,0.1,0.2,0.2,0.3C49,20.3,49,20.3,49.1,20.2z M46.3,30.3c0,0.2-0.1,0.3-0.2,0.4
		c-0.5,0.5-0.9,1-1.4,1.5c-0.1,0.1-0.3,0.2-0.5,0.3c0-0.2,0-0.4,0.1-0.5c0.1,0,0.2,0,0.3-0.1c0.1-0.1,0.2-0.2,0.2-0.4
		c0.2-0.3,0.4-0.5,0.6-0.7C45.7,30.4,45.9,30.3,46.3,30.3z M50,17.4c0.3-0.6,0.4-1.2,0.8-1.7c0.1,0,0.2,0.1,0.2,0.1
		c0.1,0,0.1,0,0.2,0c0,0.1,0,0.2,0,0.3c-0.2,0.5-0.4,1-0.7,1.5C50.3,17.5,50.2,17.4,50,17.4z M66.7,35.7c0.1-0.1,0.1-0.1,0.1-0.2
		c0.1-0.1,0.2-0.2,0.3-0.3c0.1-0.2,0.3-0.3,0.5-0.4c0.2,0,0.3,0,0.5,0.1c0.1,0.1,0.2,0.2,0.4,0.3c0.2,0.2,0.2,0.2,0.1,0.4
		c0,0-0.1,0.1-0.1,0.1C67.8,35.5,67.3,35.7,66.7,35.7z M52.8,13.7c-0.1-0.2-0.1-0.4-0.2-0.6c-0.1-0.2-0.1-0.4,0-0.6
		c0-0.1,0.2-0.1,0.3-0.1c0,0,0.1,0,0.1,0c0.1,0,0.3,0,0.5,0.1c0.1,0.2,0.1,0.4,0.2,0.6c0,0.2-0.1,0.3-0.2,0.4
		C53.3,13.6,53,13.6,52.8,13.7z M54.8,41.1c0-0.4,0.3-1.2,0.7-1.5c0.1-0.1,0.1-0.2,0.3-0.2c0,0,0,0.1,0.1,0.1
		c0.1,0.5-0.1,0.9-0.3,1.2c0,0,0,0-0.1,0.1C55.3,40.9,55,41,54.8,41.1z M55.1,3.5c0.1,0.1,0.1,0.2,0.1,0.4c0,0.6-0.2,1.1-0.5,1.6
		c-0.1-0.1-0.3-0.3-0.4-0.4c0-0.4,0.1-0.7,0.2-1c0.1-0.1,0.1-0.3,0.2-0.4C54.9,3.5,55,3.4,55.1,3.5z M51.1,23.3
		c-0.8,0.1-2.2-0.2-2.9-0.6c0,0,0,0,0,0c0,0,0.1-0.1,0.1-0.1c0.6,0.1,1.2,0.1,1.9,0.3c0.3,0.1,0.5,0.2,0.8,0.3
		C51,23.2,51,23.3,51.1,23.3z M51.8,15.9c0-0.1,0-0.1,0-0.1c0-0.3,0.2-0.6,0-0.9c0,0,0-0.1,0-0.2c0.1-0.3,0.1-0.6,0.2-0.9
		c0-0.1,0.1-0.3,0.2-0.4c0,0,0.1,0,0.2,0C52.5,14.1,52.2,15.4,51.8,15.9z M52.6,6.8c-0.1-0.2-0.2-0.3-0.2-0.5c0-0.2,0.1-0.4,0.1-0.6
		s0.3-0.2,0.4-0.2c0.2,0.1,0.3,0.3,0.3,0.5c0,0,0,0,0,0c0,0.3-0.1,0.6-0.1,0.9C52.9,7,52.8,6.9,52.6,6.8z M47,27
		c-0.1,0.1-0.2,0.2-0.3,0.3c-0.1,0.1-0.1,0.2-0.2,0.2c-0.4,0.2-0.7,0.3-1.1,0.5c0,0-0.1,0-0.2,0c0.1-0.3,0.3-0.5,0.4-0.7
		c0.3-0.3,0.7-0.4,1.1-0.4C46.8,26.9,46.9,27,47,27z M81.7,31c0.3-0.1,0.7-0.2,1-0.4c0.3-0.2,0.5-0.4,0.8-0.7
		c0.2,0.1,0.4,0.1,0.6,0.2c0,0.1-0.1,0.2-0.1,0.2c-0.5,0.4-1,0.6-1.6,0.7C82.1,31.1,81.9,31.1,81.7,31z M79.7,31.8
		c0.4,0.1,0.9,0.2,1.3,0.3c0.2,0,0.3,0.1,0.5,0.3c-0.1,0.2-0.2,0.2-0.5,0.2c-0.3,0-0.5,0-0.8-0.1C80,32.3,79.9,32.1,79.7,31.8z
		 M54,43.1c0.2-0.1,0.4-0.2,0.6-0.3c0.4,0,0.9-0.1,1.4,0c0.1,0,0.2,0.1,0.4,0.1c0,0.1,0,0.1-0.1,0.1c-0.5,0.1-1.1,0.2-1.6,0.2
		C54.5,43.2,54.3,43.2,54,43.1z M53.4,41.6c0-0.1-0.1-0.1-0.1-0.2c0-0.5,0.1-0.9,0.6-1c0,0,0.1,0,0.1,0c0.1,0.5,0,0.6-0.1,1
		C53.9,41.6,53.7,41.6,53.4,41.6z M66,40.8c-0.5,0-0.7,0-1-0.4c-0.2-0.1-0.3-0.3-0.5-0.4c-0.1-0.1-0.3-0.2-0.5-0.4
		C64.8,39.8,65.5,40.1,66,40.8z M44.2,27.6c-0.2-0.4-0.5-1.4-0.5-1.7c0-0.1,0-0.2,0-0.3c0.2,0.1,0.2,0.2,0.3,0.3
		c0.2,0.4,0.3,0.8,0.4,1.1C44.5,27.3,44.4,27.5,44.2,27.6z M56.6,9.4c0.2-0.2,0.2-0.4,0.5-0.5c0.3-0.1,0.5-0.1,0.7,0
		c-0.1,0.3-0.3,0.5-0.5,0.7C57.1,9.6,56.9,9.6,56.6,9.4C56.7,9.5,56.6,9.5,56.6,9.4z M77,26.6c0.2,0.4,0.3,0.7,0.3,1
		c0,0.1,0,0.3-0.2,0.4c-0.1-0.1-0.1-0.2-0.2-0.3c-0.1-0.1-0.2-0.1-0.3-0.2C76.6,27.1,76.8,26.9,77,26.6z M15.9,102.6
		c0.1,0.3,0,0.5-0.2,0.6c-0.3,0.1-0.7,0.1-1.1,0c0,0,0,0,0-0.1c0.3-0.2,0.8-0.2,1.1-0.4C15.7,102.6,15.8,102.6,15.9,102.6z
		 M52.1,6.7c0.2,0.1,0.3,0.3,0.3,0.5c-0.1,0.3,0,0.6,0.1,0.9c0,0.2,0.1,0.3,0.1,0.5c-0.2-0.2-0.4-0.5-0.5-0.6
		C52,7.3,52,6.9,52.1,6.7z M67.3,37.3c0.3-0.1,0.5-0.2,0.8-0.3c0.1,0,0.2,0,0.2,0c0.1,0,0.2,0.1,0.3,0.2c-0.4,0.2-0.8,0.2-1.2,0.2
		C67.4,37.5,67.4,37.4,67.3,37.3z M79,30.1c0.5-0.3,1-0.5,1.5-0.7c0,0,0.1,0,0.2,0c-0.2,0.2-0.5,0.3-0.7,0.4
		C79.7,29.9,79.4,30.1,79,30.1z M47,24.5c0.1-0.3,0.2-0.5,0.4-0.6c0.2,0.2,0.3,0.4,0.5,0.6C47.6,24.5,47.4,24.5,47,24.5z M67.4,33.5
		c0-0.1,0.1-0.2,0.2-0.3c0,0,0.1,0,0.1-0.1c0.1,0.4,0.2,0.8,0,1.1c0,0-0.1,0-0.1,0C67.5,34,67.4,33.8,67.4,33.5z M61.7,39.3
		c0,0.2-0.2,0.3-0.4,0.3c0,0-0.1,0-0.1-0.1s0-0.1,0-0.1c0.1-0.1,0.2-0.1,0.2-0.1c0.2-0.1,0.4-0.2,0.6-0.2c0,0,0.1,0.1,0.1,0.1
		c0,0,0,0.1,0,0.1C62,39.3,61.8,39.3,61.7,39.3z M84.4,28.1c0.2,0,0.4,0.1,0.5,0.2c0.2,0.2,0.2,0.4,0,0.6
		C84.8,28.6,84.7,28.3,84.4,28.1z M72.4,32.3c0-0.2,0.1-0.3,0.2-0.3c0,0.1,0.1,0.1,0.1,0.2C72.6,32.2,72.5,32.2,72.4,32.3z
		 M77.3,28.2c0,0.1,0,0.2-0.1,0.3c0-0.1,0-0.2,0-0.3C77.1,28.2,77.2,28.2,77.3,28.2z M65.2,37.2C65.2,37.2,65.2,37.1,65.2,37.2
		c0.1-0.1,0.1-0.1,0.1-0.1c0,0,0,0.1,0,0.1C65.3,37.2,65.2,37.2,65.2,37.2C65.2,37.2,65.2,37.2,65.2,37.2z M70.4,31.6
		C70.4,31.6,70.4,31.6,70.4,31.6c-0.1,0-0.1-0.1-0.1-0.1c0,0,0,0,0,0c0,0,0,0,0,0C70.4,31.5,70.4,31.6,70.4,31.6z M62.4,39
		C62.4,39.1,62.4,39.1,62.4,39C62.3,39.1,62.3,39.1,62.4,39c-0.1,0.1-0.1,0-0.1,0C62.3,39,62.3,39,62.4,39z M54.6,11.2
		C54.6,11.2,54.6,11.2,54.6,11.2C54.6,11.2,54.6,11.2,54.6,11.2C54.6,11.2,54.6,11.2,54.6,11.2C54.6,11.2,54.6,11.2,54.6,11.2z
		 M67.5,34.5C67.5,34.5,67.5,34.5,67.5,34.5C67.5,34.5,67.5,34.5,67.5,34.5C67.5,34.5,67.5,34.5,67.5,34.5
		C67.5,34.5,67.5,34.5,67.5,34.5z"/>
	<path d="M55.6,7.6C55.6,7.6,55.6,7.6,55.6,7.6C55.6,7.6,55.6,7.6,55.6,7.6C55.6,7.6,55.6,7.6,55.6,7.6C55.6,7.6,55.6,7.6,55.6,7.6z
		"/>
	<path d="M45.6,54.6C45.6,54.6,45.6,54.5,45.6,54.6c0-0.1-0.1-0.1-0.1-0.1c0,0,0,0,0,0.1C45.5,54.6,45.5,54.6,45.6,54.6z"/>
</g>
<path class="st2" d="M15.2,105.3c3.2,35.4,33,62.1,69.2,62.1c38.4,0,69.5-31.1,69.5-69.5c0-37.7-29.1-68.4-66.6-69.5"/>
</svg>
